<?xml version="1.0" encoding="UTF-8"?><svg id="EXPORT" xmlns="http://www.w3.org/2000/svg" width="93" height="93" xmlns:xlink="http://www.w3.org/1999/xlink" viewBox="0 0 93 93"><defs><linearGradient id="linear-gradient" x1="46.5" y1="92" x2="46.5" y2="1" gradientUnits="userSpaceOnUse"><stop offset="0" stop-color="#161616"/><stop offset=".53" stop-color="#201b1b"/><stop offset="1" stop-color="#161616"/></linearGradient><radialGradient id="radial-gradient" cx="46.5" cy="46.5" fx="46.5" fy="46.5" r="28.5" gradientUnits="userSpaceOnUse"><stop offset="0" stop-color="#211d1c"/><stop offset=".31" stop-color="#221e1d"/><stop offset=".42" stop-color="#282524"/><stop offset=".5" stop-color="#313030"/><stop offset=".57" stop-color="#3f4041"/><stop offset=".58" stop-color="#444647"/><stop offset=".59" stop-color="#3f4041"/><stop offset=".64" stop-color="#313030"/><stop offset=".7" stop-color="#282524"/><stop offset=".78" stop-color="#221e1d"/><stop offset="1" stop-color="#211d1c"/></radialGradient></defs><g id="Car-2"><g id="rear-wheel"><circle id="tyre" cx="46.5" cy="46.5" r="45.5" fill="url(#linear-gradient)" stroke="#161616" stroke-miterlimit="10" stroke-width="2"/><circle id="wheel-hub" cx="46.5" cy="46.5" r="28.5" fill="url(#radial-gradient)" stroke="#161616" stroke-miterlimit="10" stroke-width="2"/><g id="wheel-gaps"><circle cx="46.47" cy="46.5" r="6.33" fill="#161616" stroke-width="0"/><path d="M39.89,28.37c-.44-.95-.85-2.15-.19-2.97.36-.45.96-.64,1.52-.78,2.85-.7,5.87-.74,8.74-.13.65.14,1.32.33,1.8.8,1,.99.64,2.66.21,4-.49,1.51-.99,3.02-1.51,4.52-.23.67-.49,1.38-1.05,1.81-.8.61-1.93.45-2.93.29-.86-.13-1.77.3-2.5.21-.87-.1-.98-.95-1.37-1.8-.91-1.99-1.81-3.97-2.72-5.96Z" fill="#161616" stroke-width="0"/><path d="M58.1,30.2c.58-.67,1.31-1.38,2.19-1.3.64.06,1.15.53,1.6.98,1.01,1.02,1.95,2.09,2.84,3.22.66.84,1.31,1.87,1.03,2.89-.28,1.03-1.37,1.58-2.35,2-1.86.8-3.73,1.59-5.6,2.35-.72.29-1.5.59-2.25.38-.9-.25-1.49-1.14-2.05-1.82-.84-1.03-.83-1.42-.12-2.55,1.38-2.18,3.02-4.23,4.71-6.17Z" fill="#161616" stroke-width="0"/><path d="M66.46,41.31c.57-.14,1.23-.25,1.72.08.47.33.6.97.67,1.54.28,2.41.19,4.86-.27,7.24-.14.74-.35,1.53-.95,1.99-.79.61-1.92.4-2.88.16-2.68-.66-5.36-1.32-8.04-1.98-.03-1.87-1.05-5.87,1.04-6.72,2.72-1.12,5.87-1.59,8.72-2.3Z" fill="#161616" stroke-width="0"/><path d="M62.6,58.01c.71.57,1.46,1.31,1.4,2.21-.06.74-.64,1.3-1.19,1.8-1.32,1.18-2.64,2.37-3.95,3.55-1.05.94-2.36,1.96-3.73,1.61-1.45-.37-2.1-2.02-2.52-3.46-.39-1.33-.79-2.67-1.18-4-.3-1.03-.61-2.13-.31-3.17.46-1.62,2.95-3.63,4.68-3.17,2.36.62,4.95,3.12,6.81,4.63Z" fill="#161616" stroke-width="0"/><path d="M47.14,66c-.08.98-.27,2.09-1.1,2.6-.65.4-1.48.3-2.24.19-.97-.15-1.94-.3-2.91-.45-.45-.07-.93-.15-1.3-.42-.87-.63-.79-1.95-.49-2.99.53-1.79,1.4-3.45,2.4-5.01.51-.79,1.05-1.55,1.6-2.31.78-1.08.97-1.24,2.31-.98,1.84.35,1.97.94,1.98,2.79.01,2.19-.07,4.39-.26,6.57Z" fill="#161616" stroke-width="0"/><path d="M34.76,54.28c.78-.42,1.59-.85,2.48-.94s1.88.23,2.31,1.01c.54.96.06,2.16-.41,3.15-.9,1.87-1.8,3.75-2.7,5.62-.34.71-.72,1.46-1.42,1.82-.92.48-2.05.09-2.95-.43-1.56-.91-4.78-3.62-4.63-5.71.08-1.13,2.06-1.69,2.96-2.17l4.37-2.34Z" fill="#161616" stroke-width="0"/><path d="M35.5,47.5c0,1,1.73,1.96.89,3.05-.23.3-.62.44-.98.55-2.83.91-5.67,1.83-8.5,2.74-.66.21-1.42.41-2,.04-.49-.31-.68-.92-.82-1.48-.39-1.6-.62-3.24-.68-4.88-.03-.77.02-1.63.59-2.15.5-.46,1.24-.49,1.92-.5,2.81-.04,5.62-.07,8.43-.09.44,0,.94.02,1.24.34.22.24-.08,1.36-.08,2.36Z" fill="#161616" stroke-width="0"/><path d="M25.75,36.62c-.14.4-.26.84-.13,1.24.16.51.66.83,1.18.96s1.05.1,1.58.14c1.35.11,2.6.67,3.86,1.15s2.61.9,3.94.69,2.63-1.21,2.75-2.55c.08-.88-.34-1.73-.75-2.52-.85-1.65-1.71-3.29-2.56-4.94-.46-.88-.99-1.83-1.91-2.17-.8-.3-1.73-.05-2.44.43-1.17.79-1.92,2.16-2.87,3.19-1.17,1.26-2.08,2.76-2.65,4.39Z" fill="#161616" stroke-width="0"/></g></g></g></svg>