<?xml version="1.0" encoding="UTF-8"?><svg xmlns="http://www.w3.org/2000/svg" width="903" height="344.62" xmlns:xlink="http://www.w3.org/1999/xlink" viewBox="0 0 903 344.62"><defs><linearGradient id="linear-gradient" x1="159" y1="280.65" x2="903" y2="280.65" gradientUnits="userSpaceOnUse"><stop offset="0" stop-color="#504c56" stop-opacity="0"/><stop offset=".62" stop-color="#504c56" stop-opacity=".4"/></linearGradient><radialGradient id="radial-gradient" cx="659.12" cy="233.67" fx="659.12" fy="233.67" r="152.73" gradientTransform="translate(-751.22 206.5) scale(1.49 .14)" gradientUnits="userSpaceOnUse"><stop offset=".15" stop-color="#030303" stop-opacity=".4"/><stop offset="1" stop-color="#1d1a21" stop-opacity="0"/></radialGradient><linearGradient id="linear-gradient-2" x1="226.42" y1="202.15" x2="226.42" y2="20.15" gradientUnits="userSpaceOnUse"><stop offset=".08" stop-color="#23101c"/><stop offset=".11" stop-color="#25101c"/><stop offset=".25" stop-color="#31131d"/><stop offset=".45" stop-color="#38141d"/><stop offset="1" stop-color="#3a151e"/></linearGradient><linearGradient id="linear-gradient-3" x1="258.44" y1="190.99" x2="258.44" y2="39.15" xlink:href="#linear-gradient-2"/><linearGradient id="linear-gradient-4" x1="234.98" y1="141.29" x2="237.75" y2="121.98" xlink:href="#linear-gradient-2"/><linearGradient id="linear-gradient-5" x1="382.84" y1="129.44" x2="430.12" y2="129.44" gradientUnits="userSpaceOnUse"><stop offset="0" stop-color="#ee7a2f"/><stop offset=".02" stop-color="#ec8137"/><stop offset=".09" stop-color="#e89951"/><stop offset=".17" stop-color="#e5ad67"/><stop offset=".26" stop-color="#e3bd78"/><stop offset=".38" stop-color="#e1c884"/><stop offset=".54" stop-color="#e0ce8b"/><stop offset="1" stop-color="#e0d08d"/></linearGradient><radialGradient id="radial-gradient-2" cx="39.66" cy="127.59" fx="39.66" fy="127.59" r="15.8" gradientUnits="userSpaceOnUse"><stop offset="0" stop-color="#ee7a2f"/><stop offset=".17" stop-color="#cf602a"/><stop offset=".44" stop-color="#a53d24"/><stop offset=".65" stop-color="#8b2721"/><stop offset=".78" stop-color="#822020"/></radialGradient><linearGradient id="linear-gradient-6" x1="323.53" y1="80.09" x2="354.75" y2="58.55" gradientUnits="userSpaceOnUse"><stop offset="0" stop-color="#232028" stop-opacity=".2"/><stop offset=".12" stop-color="rgba(38,35,42,.21)" stop-opacity=".21"/><stop offset=".19" stop-color="rgba(48,45,50,.23)" stop-opacity=".23"/><stop offset=".25" stop-color="rgba(66,62,64,.28)" stop-opacity=".28"/><stop offset=".3" stop-color="rgba(91,87,84,.34)" stop-opacity=".34"/><stop offset=".34" stop-color="rgba(124,119,109,.42)" stop-opacity=".42"/><stop offset=".38" stop-color="rgba(164,158,141,.52)" stop-opacity=".52"/><stop offset=".42" stop-color="rgba(211,204,177,.63)" stop-opacity=".63"/><stop offset=".44" stop-color="#efe7c7" stop-opacity=".7"/><stop offset=".46" stop-color="rgba(209,202,175,.63)" stop-opacity=".63"/><stop offset=".5" stop-color="rgba(154,148,132,.5)" stop-opacity=".5"/><stop offset=".54" stop-color="rgba(109,104,96,.39)" stop-opacity=".39"/><stop offset=".58" stop-color="rgba(74,70,68,.31)" stop-opacity=".31"/><stop offset=".62" stop-color="rgba(48,45,48,.25)" stop-opacity=".25"/><stop offset=".66" stop-color="rgba(33,30,36,.21)" stop-opacity=".21"/><stop offset=".7" stop-color="#1d1a21" stop-opacity=".2"/><stop offset=".86" stop-color="rgba(30,27,34,.23)" stop-opacity=".23"/><stop offset=".92" stop-color="rgba(35,32,40,.32)" stop-opacity=".32"/><stop offset=".96" stop-color="rgba(44,41,51,.49)" stop-opacity=".49"/><stop offset=".98" stop-color="#332f3a" stop-opacity=".6"/></linearGradient><linearGradient id="linear-gradient-7" x1="96.05" y1="46.18" x2="170.86" y2="118.78" gradientUnits="userSpaceOnUse"><stop offset="0" stop-color="#232028" stop-opacity=".2"/><stop offset=".27" stop-color="rgba(41,38,46,.21)" stop-opacity=".21"/><stop offset=".42" stop-color="rgba(61,58,67,.26)" stop-opacity=".26"/><stop offset=".49" stop-color="#504c56" stop-opacity=".3"/><stop offset=".66" stop-color="rgba(63,59,69,.47)" stop-opacity=".47"/><stop offset=".98" stop-color="#332f3a" stop-opacity=".6"/><stop offset=".99" stop-color="rgba(49,45,56,.57)" stop-opacity=".57"/><stop offset="1" stop-color="rgba(44,40,50,.48)" stop-opacity=".48"/><stop offset="1" stop-color="rgba(35,31,39,.31)" stop-opacity=".31"/><stop offset="1" stop-color="#1d1a21" stop-opacity=".2"/></linearGradient><linearGradient id="linear-gradient-8" x1="199.5" y1="65.78" x2="318.57" y2="91.53" gradientUnits="userSpaceOnUse"><stop offset="0" stop-color="#232028" stop-opacity=".2"/><stop offset=".39" stop-color="rgba(41,38,46,.21)" stop-opacity=".21"/><stop offset=".61" stop-color="rgba(61,58,67,.26)" stop-opacity=".26"/><stop offset=".71" stop-color="#504c56" stop-opacity=".3"/><stop offset=".8" stop-color="rgba(63,59,69,.47)" stop-opacity=".47"/><stop offset=".98" stop-color="#332f3a" stop-opacity=".6"/><stop offset=".99" stop-color="rgba(49,45,56,.57)" stop-opacity=".57"/><stop offset="1" stop-color="rgba(44,40,50,.48)" stop-opacity=".48"/><stop offset="1" stop-color="rgba(35,31,39,.31)" stop-opacity=".31"/><stop offset="1" stop-color="#1d1a21" stop-opacity=".2"/></linearGradient><linearGradient id="linear-gradient-9" x1="575" y1="240.65" x2="903" y2="240.65" gradientUnits="userSpaceOnUse"><stop offset="0" stop-color="#dfd08c" stop-opacity=".4"/><stop offset="1" stop-color="#161616" stop-opacity="0"/></linearGradient><linearGradient id="linear-gradient-10" x1="424" y1="134.31" x2="903" y2="134.31" gradientUnits="userSpaceOnUse"><stop offset=".1" stop-color="#dfd08c" stop-opacity=".7"/><stop offset=".21" stop-color="rgba(223,208,140,.66)" stop-opacity=".66"/><stop offset=".38" stop-color="rgba(223,208,140,.56)" stop-opacity=".56"/><stop offset=".6" stop-color="rgba(223,208,140,.39)" stop-opacity=".39"/><stop offset=".85" stop-color="rgba(223,208,140,.16)" stop-opacity=".16"/><stop offset="1" stop-color="#dfd08c" stop-opacity="0"/></linearGradient><radialGradient id="radial-gradient-3" cx="37.5" cy="127.65" fx="37.5" fy="127.65" r="33.5" gradientUnits="userSpaceOnUse"><stop offset="0" stop-color="#bf2026" stop-opacity=".5"/><stop offset=".19" stop-color="rgba(202,54,40,.37)" stop-opacity=".37"/><stop offset=".54" stop-color="rgba(221,91,43,.17)" stop-opacity=".17"/><stop offset=".83" stop-color="rgba(233,113,46,.05)" stop-opacity=".05"/><stop offset="1" stop-color="#ee7a2f" stop-opacity="0"/></radialGradient><radialGradient id="radial-gradient-4" cx="421.5" cy="129.65" fx="421.5" fy="129.65" r="63.5" gradientUnits="userSpaceOnUse"><stop offset="0" stop-color="#e0d08d" stop-opacity=".3"/><stop offset=".25" stop-color="rgba(224,208,141,.21)" stop-opacity=".21"/><stop offset=".74" stop-color="rgba(224,208,141,.06)" stop-opacity=".06"/><stop offset="1" stop-color="#e0d08d" stop-opacity="0"/></radialGradient></defs><g id="Road"><rect id="road-shadow" x="159" y="217.15" width="744" height="127" fill="url(#linear-gradient)" stroke-width="0"/></g><g id="EXPORT"><g id="Luca"><path d="M277.16,130.89c-.67-.65-1.53-1.11-2.43-1.38-2.71-.79-5.67-.1-8.34.52-6.37,1.49-12.67,3.34-18.76,5.73-5.64,2.21-11.57,4.7-15.96,9-.71.7-1.37,1.48-1.71,2.41-.45,1.24-.27,2.63.14,3.89.67,2.02,2.01,3.88,3.9,4.86,3.35,1.72,7.48.53,10.93-.24,4.88-1.08,9.3-3.57,13.83-5.6,5.06-2.27,23.98-9.91,19.11-18.28-.2-.34-.44-.64-.72-.92Z" fill="#161616" stroke-width="0"/><path d="M236.16,90.19c-1-.15-1.99-.41-3.02-.78-.66-.24-6.25-2.79-6.13-3.31-.3,1.35-.65,2.77-1.61,3.76s-2.77,1.29-3.68.25c.33,3.01.42,6.27-1.21,8.82-1.63,2.55-5.63,3.74-7.75,1.58-.5,1.49-2.33,2.28-3.86,1.88s-2.68-1.74-3.18-3.23c-.19,2.32-3.51,3.64-5.24,2.07-.25,1.46-1.99,2.45-3.37,1.93s-2.04-2.41-1.27-3.67c-2.35,1.04-5.45-.57-5.96-3.09-1.51.97-3.64.21-4.78-1.17s-1.53-3.22-1.88-4.98c-.41-2.04-.75-4.36.5-6.02-.52-2.19-.19-4.91,1.75-6.07,1.27-.75,2.85-.62,4.31-.47.54.06,1.1.12,1.55.41.87.55,1.21,1.83,2.2,2.09,1.47.39,2.43-1.75,3.94-1.99-1.14-.7-1.3-2.46-.52-3.55s2.23-1.55,3.57-1.44c-.8-2.91.1-6.23,2.25-8.34s5.49-2.95,8.38-2.09c.6.18,1.3.41,1.82.07.39-.26.54-.75.72-1.19,1.32-3.3,3.99-3.03,6.82-3.65,3.03-.67,5.16-2.09,8.51-1.81,3.4.29,6.92,1.6,8.87,4.39.63.9,1.12,1.97,2.07,2.54.79.48,1.76.51,2.69.54,3.47.1,6.94.31,10.39.61.81.07,1.81.31,1.98,1.1.09.41-.1.82-.31,1.18-1.18,1.96-3.38,3.13-5.62,3.57-1.89.37-4.16-.31-5.93.14-1.5.38-1.01,2.2-.19,3.43.59.87,1.39,1.56,1.98,2.43s.92,2.03.42,2.95c-.58,1.09-1.55,1.86-1.73,3.18s.43,2.58.4,3.91-.53,2.6-1.57,3.33c-.95.68-2.18.76-3.35.82-1.04.05-2.01,0-2.97-.14Z" fill="#161616" stroke-width="0"/><path d="M246.56,130.89c-1.34-4.88-3.43-9.56-4.44-14.53-.82-4.02-.93-8.2-2.15-12.13-.6-1.93-1.4-3.54-2.75-5s-3.01-2.61-3.66-4.51c-.55-1.61-.21-3.38-.49-5.05-.43-2.61-3.41-6.4-6.44-5.52-3.18.92-4.81,6.73-6.23,9.27-1.77,3.19-4.85,5.31-6.98,8.21-2.61,3.57-2.61,7.7-1.23,11.79.98,2.9,2.42,5.64,3.21,8.6,1.29,4.84.77,9.94.57,14.94s0,10.27,2.54,14.59c2.5,4.27,9.48,9.26,14.6,6.79.11-.01.23-.02.34-.03,5.05-.68,10.02-3.24,12.48-7.89,2.47-4.67,2.31-11.73,1.28-16.79-.19-.92-.41-1.82-.66-2.72Z" fill="#161616" stroke-width="0"/><path d="M257.01,116.57c-.63-3.85-4.27-6.19-7.47-7.86-1.93-1-3.97-1.88-6.04-2.53-1.77-.55-3.7-.81-5.24-1.9-1.83-1.3-3.43-2.63-5.51-3.53-1.59-.69-3.24-1.17-4.93-1.43-3.95-1.26-8.17-1.23-10.37,3.16-1.53,3.06-1.21,6.5.72,9.33,1.94,2.84,5.02,4.7,8.14,6.16,3.85,1.8,7.86,3.07,11.98,4.09.38.09.77.2,1.15.3,2.11,1.27,4.74,1.7,7.32,1.77.79.1,1.58.17,2.37.15.67-.01,1.36-.12,2.04-.31,1.87-.2,3.62-.79,4.79-2.38,1.06-1.45,1.34-3.29,1.06-5.04Z" fill="#161616" stroke-width="0"/><path d="M279.3,102.55c-.38-.64-.92-1.37-1.56-1.93-.27-.46-.73-.72-1.23-.72-.28-.09-.56-.15-.85-.14-.91.04-1.79.57-2.6.96-.13.06-.25.13-.37.19-.06.02-.12.05-.18.08-.32-.05-.64-.08-.96-.08-2.74,0-5.23,1.55-7.55,2.82-2.16,1.18-4.31,2.38-6.3,3.81-.34.14-.68.28-1.02.43-4.47,1.9-10.49,5.12-11.96,10.2-.44,1.54-.18,3.38,1.02,4.44.72.64,1.68.93,2.63,1.13,6.96,1.53,11.93-1.14,18.12-3.79,5.35-2.29,10.92-4.98,13.18-10.74.11-.28.24-.61.35-.95.02,0,.03-.02.05-.03.27-.16.47-.47.46-.8-.07-1.68-.32-3.4-1.2-4.88Z" fill="#161616" stroke-width="0"/><path d="M295.85,94.97c-.88-.07-1.88.27-2.81.89-.74.5-1.59,1-2.48.87-2.28-.32-.42-2.42-1.12-3.46-.14-.21-.36-.33-.59-.43-2.98-1.21-6.59,3.08-8.33,4.95-.63.68-1.24,1.71-2.03,2.21-.5.32-1.62.02-1.87.72-.06.16-.04.35-.02.52.18,1.39.43,2.84,1.29,3.94,1.35,1.72,4.06,1.09,5.97,1.15,2.48.08,5,.24,7.4-.54,3.36-1.09,7.69-4.46,6.88-8.43-.32-1.59-1.21-2.3-2.29-2.39Z" fill="#161616" stroke-width="0"/><path d="M301.51,164.07c-.03-.14-.07-.29-.11-.43,0-.91-.14-1.82-.42-2.58-1.22-3.36-3.58-6.47-5.58-9.4-3.44-5.06-7.12-10.08-11.52-14.36-.72-.87-1.45-1.73-2.21-2.57-1.17-1.3-2.41-2.6-3.98-3.36-6.17-2.98-11.84,3.23-10.45,9.26,1.35,5.87,6.24,9.97,9.09,15.07,2.93,5.23,4.75,10.98,7.46,16.32.25.5.54,1.02,1.02,1.31.43.26.96.29,1.46.3,3.01.08,6.12-.24,8.75-1.7.12-.07.23-.15.35-.22.21-.09.41-.17.62-.27,2.52-1.24,6.13-4.15,5.52-7.35Z" fill="#161616" stroke-width="0"/></g><g id="Car-2"><ellipse id="car_shadow" cx="230" cy="238.15" rx="230" ry="27" fill="url(#radial-gradient)" stroke-width="0"/><path id="car-body-bg" d="M422,110.15c-4-7-12-8-16-10s-39,0-42,0-7-1-8-2c-.31-.31-.61-.62-.92-.98-.56,1.96-4.86,4.21-9.08-.02-5-5-25-43.53-25-48,0-5.01,1.25-8.33,2.36-8.37-1.78-3.04-3.01-5.1-3.36-5.63-2-3-5-8-8-10s-5-2-13-3-94-2-103-2-83,6-86,7-5,2-7,4S38,102.15,35,106.15s-5,8-7,11.15,0,27.85,0,27.85c0,0-2,0-4,1.05-2,1.05-1,18.95,0,26.95s3,8,3,8c4,0,12,2,17,6s8,11,10,13,4,2,7,2h293c4,0,46-2,53-3s17-7,19-11,4-14,4-30-4-41-8-48ZM181,95.15c0,4,0,6-2,8s-29,4-40,5-52,1-56,1-6,0-6-4,11-22,15.56-30.07c4.56-8.07,17.62-26.11,19.44-27.93,2-2,6.14-2.1,8-2,1.86.1,15.08.16,19,0,3.92-.16,25,0,30,0s9,0,11,3,1,43,1,47ZM315.34,104.15c-1.34,0-35.78,4.01-53.56,5.01s-48.78-2-51.78-3-4-3-5-7-9-44-8-47,6-4,6-4c3,0,37-2,46-2s37.22,0,40.61,1c3.39,1,8.69,3.5,9.54,5.25.85,1.75,19.27,40.29,19.56,46.02.29,5.73-2.03,5.72-3.37,5.72Z" fill="#161616" stroke-width="0"/><path id="steering-wheel" d="M341.96,110.42c0-.14-.01-.28-.02-.42-.08-1.52-.2-3.06-.8-4.48-2.54-5.9-11.77-7.93-17.88-8.96-5-.84-10.06-1.35-15.13-1.54-2.17-.08-3.81.17-5.42,1.51s-2.64,2.65-4.94,1.38c.36-1.8.72-3.59,1.07-5.39.68-3.53,1.2-7.02.34-10.56-.26-1.07-1.56-1.94-2.76-1.91-6.47.2-8.65,8-10.42,12.42-2.43,6.09-4.07,12.63-2.94,19.11.69,3.97,3.57,6.31,7.29,2.88,2.64-2.43,2.43-5.57,4.08-8.42.29-.51.71-1.06,1.34-1.12.45-.04.88.19,1.19.49.85.81.98,2.06.65,3.13-.34,1.1-1.13,2.02-1.55,3.07-.55,1.39-.95,2.92-1.43,4.34-1.04,3.1-1.93,6.25-2.57,9.44-1.25,6.28-1.49,12.79.19,19.02.27.99.64,2.05,1.57,2.63,1.3.82,3.06.35,4.59-.02,6.3-1.53,12.88-.87,19.22.07,3.32.49,6.61,1.08,9.94,1.51,2.36.31,5.9,1.15,7.97-.33,1.06-.76,1.51-2.01,1.88-3.19,3.53-11.25,5.06-23.01,4.52-34.69Z" fill="#161616" stroke-width="0"/><path id="car-body" d="M422,110.15c-4-7-12-8-16-10s-39,0-42,0-7-1-8-2c-.31-.31-.61-.62-.92-.98-.56,1.96-4.86,4.21-9.08-.02-5-5-25-43.53-25-48,0-5.01,1.25-8.33,2.36-8.37-1.78-3.04-3.01-5.1-3.36-5.63-2-3-5-8-8-10s-5-2-13-3-94-2-103-2-83,6-86,7-5,2-7,4S38,102.15,35,106.15s-5,8-7,11.15,0,27.85,0,27.85c0,0-2,0-4,1.05-2,1.05-1,18.95,0,26.95s3,8,3,8c4,0,12,2,17,6s8,11,10,13,4,2,7,2h2.01c.27-27.66,22.76-50,50.49-50s50.22,22.34,50.49,50h88.03c.27-27.66,22.76-50,50.49-50s50.22,22.34,50.49,50h1.01c4,0,46-2,53-3s17-7,19-11,4-14,4-30-4-41-8-48ZM181,95.15c0,4,0,6-2,8s-29,4-40,5-52,1-56,1-6,0-6-4,11-22,15.56-30.07c4.56-8.07,17.62-26.11,19.44-27.93,2-2,6.14-2.1,8-2,1.86.1,15.08.16,19,0,3.92-.16,25,0,30,0s9,0,11,3,1,43,1,47ZM315.34,104.15c-1.34,0-35.78,4.01-53.56,5.01s-48.78-2-51.78-3-4-3-5-7-9-44-8-47,6-4,6-4c3,0,37-2,46-2s37.22,0,40.61,1c3.39,1,8.69,3.5,9.54,5.25.85,1.75,19.27,40.29,19.56,46.02.29,5.73-2.03,5.72-3.37,5.72Z" fill="url(#linear-gradient-2)" stroke="#161616" stroke-miterlimit="10" stroke-width="2"/><path id="exhaust-pipe" d="M27,181.12s-3.29.69-4,4.03c-1.29,6.03,0,11,3,14,1,1,4,1,5,1,15,0,28.85.41,30,.41,2,0-14-19.44-34-19.44Z" fill="#27232d" stroke="#161616" stroke-miterlimit="10" stroke-width="2"/><g id="car-door"><path d="M299.76,41.15c-2.24-1-5.76-2-13.76-2s-92,2-92,2c0,0-6,2-5,6s7,46,9,61-3,68-3,71,1,8,4,10,29,2,34.82,1.67,9.18-2.67,10.57-4.58c1.39-1.9,2.61-7.1,3.61-9.1s6-11,15-19,19-14,34-15,26,2,28,2.17c2,.17,3-1.17,3-4.62v-38.54c0-5-26-60-28.24-61ZM315.34,104.15c-1.34,0-35.78,4.01-53.56,5.01s-48.78-2-51.78-3-4-3-5-7-9-44-8-47,6-4,6-4c3,0,37-2,46-2s37.22,0,40.61,1c3.39,1,8.69,3.5,9.54,5.25.85,1.75,19.27,40.29,19.56,46.02.29,5.73-2.03,5.72-3.37,5.72Z" fill="url(#linear-gradient-3)" stroke="#161616" stroke-miterlimit="10" stroke-width="2"/><path d="M222,123.15c-1.26.63-1,8,1,11s4,6,10,7,20-10,20-14-2-4-6-5-18.15,0-20.58,0-2.42,0-4.42,1Z" fill="url(#linear-gradient-4)" stroke="#161616" stroke-miterlimit="10" stroke-width="2"/></g><path id="headlight" d="M423,113.15c-2.86-.5-7-2-18.1-2-5.99,0-18.92,1.2-20.9,2s-1.03,13.31-.02,15.65,4.02,3.35,6.02,4.35,38.09,15.94,39.55,14.47.45-33.25-6.55-34.47Z" fill="url(#linear-gradient-5)" stroke="#161616" stroke-miterlimit="10" stroke-width="2"/><path id="rear-light" d="M30.85,112.51c2.78-4.35,12.48-2.36,15.31-1.36s6.83,4,6.83,13,.89,15.13-1.05,17.06-20.95,4.94-23.95,3.94-2-24.7,0-27.85.71-1.44,2.85-4.79Z" fill="url(#radial-gradient-2)" stroke="#161616" stroke-miterlimit="10" stroke-width="2"/><g id="grill"><path id="grill-2" d="M423.96,153.14s1.21,12.33-.17,18.27c-1.38,5.93-3.61,13.45-3.61,13.45" fill="none" stroke="#161616" stroke-linecap="round" stroke-miterlimit="10" stroke-width="3"/><path id="grill-3" d="M418.01,153.15s.97,13.95-.52,20.69-3.87,15.27-3.87,15.27" fill="none" stroke="#161616" stroke-linecap="round" stroke-miterlimit="10" stroke-width="3"/><path id="grill-4" d="M412.96,152.14s.89,15.03-.65,22.3-3.98,16.51-3.98,16.51" fill="none" stroke="#161616" stroke-linecap="round" stroke-miterlimit="10" stroke-width="3"/></g><path id="back-seat" d="M120.19,108.86c.56.02,1.23-.02,1.49-.48.17-.29.09-.65.01-.97-1.73-6.94-3.18-13.96-3.9-21.05-.66-6.5-.77-13.26-3.82-19.15-.91-1.77-2.14-3.48-3.93-4.54-1.96-1.16-6.13-2.03-8.65-1.17-3.47,4.99-6.91,10.18-8.84,13.58-4.56,8.07-15.56,26.07-15.56,30.07s2,4,6,4c.48,0,1.5,0,2.93,0,.53-.04,1.05-.08,1.58-.12,10.86-.82,21.79-.5,32.68-.17Z" fill="#161616" stroke-width="0"/><g id="Windows"><path id="windscreen" d="M321,49.15c0,4.47,20,43,25,48,4.22,4.22,8.52,1.98,9.08.02.1-.36.09-.72-.08-1.02-1.19-2.04-2.38-4.08-3.56-6.12-4.69-8.07-9.22-15.98-12.98-23.12-.86-1.63-1.69-3.22-2.46-4.76-4.6-9.21-9-17-12-21-.2-.27-.41-.37-.64-.37-1.11.04-2.36,3.36-2.36,8.37Z" fill="url(#linear-gradient-6)" stroke="#161616" stroke-miterlimit="10" stroke-width="2"/><path id="back-window" d="M120,45.15c-1.86-.1-6,0-8,2-1.81,1.81-14.88,19.86-19.44,27.93s-15.56,26.07-15.56,30.07,2,4,6,4,45,0,56-1,38-3,40-5,2-4,2-8,1-44-1-47-6-3-11-3-26.08-.16-30,0-17.14.1-19,0Z" fill="url(#linear-gradient-7)" stroke="#161616" stroke-miterlimit="10" stroke-width="2"/><path id="front-window" d="M315.34,104.15c-1.34,0-35.78,4.01-53.56,5.01s-48.78-2-51.78-3-4-3-5-7-9-44-8-47,6-4,6-4c3,0,37-2,46-2s37.22,0,40.61,1c3.39,1,8.69,3.5,9.54,5.25.85,1.75,19.27,40.29,19.56,46.02.29,5.73-2.03,5.72-3.37,5.72Z" fill="url(#linear-gradient-8)" stroke="#161616" stroke-miterlimit="10" stroke-width="2"/></g><path id="windscreen-wiper" d="M356,102.15c-1.82.93-2.93-.85-3-1l-.29-9.12c-.07-.15.18-.88,1.29-.88,1,0,1.93.85,2,1l2,7c0,1,.22,1.87-2,3Z" fill="#161616" stroke-width="0"/><path id="headlight-spotlight" d="M903,267.83c-14.27.21-28.89.32-43.78.32-156.97,0-284.22-12.31-284.22-27.5s127.25-27.5,284.22-27.5c14.89,0,29.51.11,43.78.32" fill="url(#linear-gradient-9)" stroke-width="0"/><path id="headlight-beam" d="M424,114.15L903,0v268.62s-145.96-1.02-188-3.47c-120-7-137-20-137-20l-148-97-6-34Z" fill="url(#linear-gradient-10)" opacity=".22" stroke-width="0"/><circle id="rear-light-glow" cx="37.5" cy="127.65" r="33.5" fill="url(#radial-gradient-3)" stroke-width="0"/><circle id="headlight-glow" cx="421.5" cy="129.65" r="63.5" fill="url(#radial-gradient-4)" stroke-width="0"/></g></g></svg>