<?xml version="1.0" encoding="UTF-8"?><svg id="BG_trees_2" xmlns="http://www.w3.org/2000/svg" width="635.95" height="172.84" xmlns:xlink="http://www.w3.org/1999/xlink" viewBox="0 0 635.95 172.84"><defs><linearGradient id="linear-gradient" x1="317.98" y1="172.84" x2="317.98" y2="0" gradientUnits="userSpaceOnUse"><stop offset=".26" stop-color="#1d1a2d"/><stop offset=".71" stop-color="#332f3a"/></linearGradient></defs><path id="cloud2" d="M630.84,106.44c-5.83-3.9-13.44-4.06-19.62-7.39-9.86-5.31-13.91-17.24-21.78-25.2-14.34-14.51-42.15-11.35-52.86,6.02-4.86,2.82-11.12-1.49-13.29-6.67-2.17-5.18-1.92-11.07-3.6-16.43-2.51-8.01-9.59-14.42-17.81-16.12-8.22-1.7-17.26,1.37-22.75,7.73,6.55-11.45.8-26.85-9.57-34.99-10.37-8.14-24.02-10.62-37.14-11.96-10.73-1.09-22.7-2.66-33.26.17-10.68,2.86-19.63,11.14-30.44,13.11-10.46,1.9-20.55-4.56-31.12-5.69-14.14-1.51-28.69,7.92-33.09,21.44-7.12-3.46-16.01,1.72-19.41,8.87-3.41,7.14-2.84,15.46-2.2,23.35-12.93-24.99-46.47-36.88-72.25-25.62-3.94,1.72-7.61,3.85-11.1,6.23-8.79-.64-17.65,2.28-24.9,7.84-7.43,5.7-12.42,13.5-15.89,22.02-6.88-2.94-14.98-3.24-22.62-1.55-9.95-5.28-21.53-4.02-32.33-.63-12.37,3.88-21.86,12.9-20.84,26.74.04.56.1,1.11.18,1.65-2.26-1.2-4.56-2.27-7.06-2.78-16.64-3.4-7.23,14.68-13.2,21.27-10.03,11.09-24.91,1.66-36.49.69-11.08-.92-22.36,6.11-26.4,16.46,2.79,2.62,6.24,4.31,9.94,5.34-.01.23-.03.45-.03.69,0,7.29,6.6,15.03,14.39,14.39,9.59-.79,19.18-1.59,28.77-2.38,5.11-.42,10.23-.85,15.34-1.27,2.24-.18,4.45-.35,6.7-.37.1.03.26.08.49.15.1.06.26.15.49.27,8.35,4.95,15.48,9.59,25.73,8.1,7.62-1.11,13.81-4.97,19.18-9.97,1.48-1.23,2.98-2.55,4.57-3.86,7.91-6.5,17.64-8.1,27.41-4.77,8.35,2.85,15.65,8.12,23.72,11.68,8.07,3.57,17.82,5.27,25.48.89,9.49-5.43,12.24.13,22.28.43,12.47.38,18.92.57,30.19,6.64,10.77,5.81,22.58,9.66,34.7,11.33,8.89,1.22,19.13.79,25.18-5.84,3.33-3.65,4.8-8.61,7.67-12.64,4.98-7,13.93-10.5,22.51-10.29,8.59.2,16.82,3.71,23.99,8.43,5,3.29,9.88,7.32,15.81,8.17,5.93.85,13.06-3.39,12.47-9.35,13.14,10.11,32.01,12.15,47.02,5.09,6.58-3.09,12.69-7.96,19.8-9.82,5.74-1.51,14.58.78,17.73-6.07,1.73-3.77-.33-8.25.44-12.33.83-4.47,5.01-7.71,9.42-8.83,4.4-1.12,9.04-.54,13.55.05,11.94,1.55,23.87,3.25,35.82,4.67,8.44,1,16.06-.67,24.31-.13,22.12,1.44,44.46,5.98,66.5-.24,6.75-1.91,5.12-12.82-.71-16.72Z" fill="url(#linear-gradient)" stroke-width="0"/></svg>