<?xml version="1.0" encoding="UTF-8"?><svg id="BG_trees_2" xmlns="http://www.w3.org/2000/svg" width="286.27" height="64" xmlns:xlink="http://www.w3.org/1999/xlink" viewBox="0 0 286.27 64"><defs><linearGradient id="linear-gradient" x1="143.13" y1="64" x2="143.13" y2="0" gradientUnits="userSpaceOnUse"><stop offset=".15" stop-color="#1d1a2d"/><stop offset=".71" stop-color="#332f3a"/></linearGradient></defs><path id="cloud3" d="M232.03,25.43c-1.57,1.76-3.73,3.1-6.06,3.6-5.77,1.23-11.69-1.27-16.65-4.36-2.33-1.45-4.61-3.07-7.27-3.8s-5.87-.35-7.65,1.7c.2-.23-3.46-8.2-3.95-9.07-1.86-3.31-4.85-6.25-8.07-8.33-5.95-3.84-13.53-5.45-20.61-5.14-14.66.64-22.79,9.13-28.22,20.39.84-1.75-16.03-2.46-17.51-2.19-6.43,1.16-10.28,4.77-15.58,7.91-12.31,7.3-28.45,6.82-42.3,6.19-7.85-.36-15.72,0-23.3-1.71-8.32-1.89-16.94-2.55-25.46-1.97-3.34.23-7.13.91-8.86,3.68-.49.79-.77,1.81-.33,2.63.58,1.09,2.06,1.31,3.32,1.4,4.01.29,8.03.58,12.04.87,2.76.2,9.41-.54,11.69.91,2.16,1.37,1.34,3.73,2.93,5.64,2.06,2.48,5.57,2.68,8.61,2.8,12.55.51,25.11,1.02,37.66,1.53,10.15.41,19.13-.8,28.87,2.04,24.16,7.04,49.07,11.65,74.2,13.72,2.15.18,4.43.31,6.36-.63s3.24-3.38,2.17-5.19c-.87-1.47-2.8-1.9-4.52-2.2-6.76-1.17-13.52-2.34-20.28-3.51.49-2.77,3.2-4.75,6.03-5.37s5.77-.15,8.63.29c31.89,4.9,64.38,6.2,96.58,3.87,4.65-.34,10.26-1.45,11.76-5.72-8.71-1.2-17.65-.73-26.17,1.38,2.35-5.79,10.07-14.87,3.77-20.64-4.07.52-6.45,4.52-9.06,7.6-2.6,3.08-7.7,5.49-10.52,2.6-1.71-2.48.2-5.9,2.71-7.63s5.62-2.66,7.74-4.83c4.19-4.29,2.33-11.98-2.6-15.46-4.93-3.48-11.69-3.5-17.58-1.93-2.89.77-5.83,1.99-7.61,4.32-1.79,2.33-1.97,6.01.29,7.91,2.26,1.9,6.73.41,6.61-2.49,1.57,3.06.51,6.58-1.82,9.18Z" fill="url(#linear-gradient)" stroke-width="0"/></svg>