<?xml version="1.0" encoding="UTF-8"?><svg id="BG_trees_2" xmlns="http://www.w3.org/2000/svg" width="449.4" height="111.14" xmlns:xlink="http://www.w3.org/1999/xlink" viewBox="0 0 449.4 111.14"><defs><linearGradient id="linear-gradient" x1="224.7" y1="0" x2="224.7" y2="111.14" gradientUnits="userSpaceOnUse"><stop offset=".29" stop-color="#332f3a"/><stop offset=".85" stop-color="#1d1a2d"/></linearGradient></defs><path id="cloud1" d="M448.02,54.34c-15.7-3.25-31.71-5.02-47.74-5.28-7.42-.12-14.84.22-22.24.27-3.44.02-20.68,2.19-22.75,0-2.44-2.57-5.91-4.33-10.17-4.64-15.31-1.1-36.62,1.74-49.03-8.77-5.32-4.51-10.15-10.06-16.77-12.25-11.54-3.81-23.67,3.88-35.83,3.97-20.24.15-34.72-19.96-54.09-25.84-12.77-3.87-26.8-1.15-38.82,4.65-11.13,5.37-21.53,19.08-32.66,22.67-11.72,3.78-20.84-.13-31.57,9.25-3.91,3.42-6.38,8.37-11.26,10.58-5.54,2.51-13.77,1.54-19.8,2.32-15.4,2.01-30.58,5.61-45.23,10.76-4.21,1.48-8.96,3.73-9.91,8.09-.89,4.08,2.27,8.16,6.12,9.79s8.18,1.4,12.35,1.17c43.6-2.43,87.32-2.83,130.95-1.19,3.47.13,7.6.67,9.17,3.77,1.78,3.53-1.34,7.82-5.06,9.18s-7.81.86-11.74,1.31-8.25,2.41-9.2,6.25c-.88,3.54,1.66,7.22,4.92,8.87s7.05,1.74,10.7,1.79c28.85.34,57.72-.56,86.5-2.7,14.15-1.05,28.92-4.19,43.06-4.13,12.49.05,25.31,1.26,37.95,1.41l47.67.56c14.52.17,31.52-2.1,45.76.54-18.6-3.45-37.2-6.9-55.8-10.35-2.6-.48-5.54-1.2-6.8-3.52-1.48-2.71.34-6.28,3.04-7.77s5.96-1.49,9.04-1.41c12.66.29,25.32.92,37.94,1.87,8.51.64,21.88,4.88,29.78.55,2.45-1.34,4.31-4.21,3.56-6.91-2.3-8.28-19.73-.46-22-8.74-.96-3.49,2.47-6.87,6.02-7.56s7.18.36,10.78.76c8.97.98,18.33-2.46,24.52-9.03-.46-.1-.91-.19-1.37-.29Z" fill="url(#linear-gradient)" stroke-width="0"/></svg>