<?xml version="1.0" encoding="UTF-8"?><svg id="BG_trees_2" xmlns="http://www.w3.org/2000/svg" width="475.45" height="138.74" xmlns:xlink="http://www.w3.org/1999/xlink" viewBox="0 0 475.45 138.74"><defs><linearGradient id="linear-gradient" x1="237.72" y1="138.74" x2="237.72" y2="0" gradientUnits="userSpaceOnUse"><stop offset=".15" stop-color="#1d1a2d"/><stop offset=".71" stop-color="#332f3a"/></linearGradient></defs><path id="cloud4" d="M467.14,80.47c-.1-.02-.2-.05-.31-.07-19.67-4.27-38.93,10.54-59.04,9.62-16.48-.75-30.38-11.75-44.53-20.24-14.15-8.49-32.61-14.67-46.59-5.9,4.06-2.55-21.13-22.31-23.24-23.78-9.94-6.92-22.16-9.08-33.63-3.74-5.29,2.46-9.9,6.19-15.17,8.7s-11.72,3.67-16.81.83c-6.88-3.84-8.34-12.84-11.49-20.07-6.49-14.89-22.58-24.14-38.76-25.56-25.21-2.21-58.16,9.13-52.01,40.07,1.11,5.56,3.4,11.96-.13,16.4-4.06,5.11-12.02,3.14-18.43,1.91-23.88-4.56-49.93,11.11-57.08,34.35-8.38-5.25-18.86-8.71-28.14-5.28-6.37,2.35-9.83,9.46-13.91,13.52-4.24,4.23-10.46,7.65-6.74,15.14,0,.41,31.67-.56,34.51.31,9.54,2.91,16.23,8.81,27.04,10.27,35.64,4.81,71.89,5.08,107.59.79,20.29-2.44,40.46-6.34,60.89-7.03,22.84-.77,39.74,4.72,60.08,13.34,11.77,4.99,25.41,4.87,37.95,4.21,11.66-.62,27.1,3.13,37.37-3.71,4.12-2.74,7.18-7.05,11.74-8.98,9.83-4.15,22.48,3.7,33.2,2.62,7.07-.71,12.5-2.46,19.8-1.7,4.04.42,8.29.62,11.99-1.06,3.69-1.68,6.57-5.84,5.47-9.75-.9-3.22-4.2-5.31-7.51-5.8-3.31-.5-6.66.28-9.91,1.05-3.12-4.92,1.07-11.82,6.6-13.65,7.74-2.55,33.78,3.24,37.27-7.66,1.4-4.37-3.56-8.06-8.07-9.15Z" fill="url(#linear-gradient)" stroke-width="0"/></svg>