<svg xmlns="http://www.w3.org/2000/svg" viewBox="0 0 59.73 118.92"><defs><style>.cls-1{fill:#1f1b25;}.cls-2{fill:#e0d08d;}</style></defs><g id="Layer_2" data-name="Layer 2"><g id="Final_scene" data-name="Final scene"><g id="logo-ear-r"><path class="cls-1" d="M3.92,89.41c1.33-6.57,1.33-14.15,3.14-19.89,3.14-10,7.76-19.46,12.69-28.68C27.16,26.94,36.9,15,46.41,2.57,49.14-1,52.49-1,53.88,3.68,59.39,22.15,57.82,41.87,59,61.1c.41,6.77,1.16,13.56.49,20.3a41.81,41.81,0,0,1-10.06,23c-3.86,4.51-9.83,13.7-16.28,14.47a8.38,8.38,0,0,1-3.75-.79,59.12,59.12,0,0,0-15.65-3c-3.4-.26-10.84,1.35-11.56-2.72l-2-11.55a4.16,4.16,0,0,1-.07-1.57,5,5,0,0,1,.84-1.66A23.45,23.45,0,0,0,3.92,89.41Z"/><path class="cls-2" d="M3.92,89.41c1.33-6.57,1.33-14.15,3.14-19.89,3.14-10,7.76-19.46,12.69-28.68C27.16,26.94,36.9,15,46.41,2.57,47.53,1.1,52.6-2,52.85,1.87a3.45,3.45,0,0,0-4.23.3,9.45,9.45,0,0,0-2.44,3.94c-3.34,8.27-6.06,16.78-8.78,25.28l-8,25.09L25.4,69A188.61,188.61,0,0,0,20,88.33c-1.2,5.87-1.84,11.87-3.5,17.63-.75,2.63-1.77,5.3-3.76,7.18-2.17,2.06-9.78,3.63-10.55-.74l-2-11.55a4.16,4.16,0,0,1-.07-1.57,5,5,0,0,1,.84-1.66A23.45,23.45,0,0,0,3.92,89.41Z"/></g></g></g></svg>