<?xml version="1.0" encoding="UTF-8"?><svg id="Layer_2" xmlns="http://www.w3.org/2000/svg" width="229.73" height="299" xmlns:xlink="http://www.w3.org/1999/xlink" viewBox="0 0 229.73 299"><g id="Final_scene"><g id="logo-escape-umbra-manor"><image width="535" height="600" transform="translate(-150.89 -151)" xlink:href="logo-escape-umbra-manor-1.png"/><path d="M49.72,23.82c-.21.26-1.49.29-3.83.08-2.35-.21-6.05-.55-11.1-1.02,0,1.72.01,3.83.04,6.33.03,2.5.01,5.19-.04,8.05,3.91.37,6.96.7,9.15,1.02,2.19.31,3.33.52,3.44.62.21.21.29.64.23,1.29-.05.65-.18,1.37-.39,2.15-.21.78-.47,1.52-.78,2.23-.31.7-.62,1.16-.94,1.37-.26.1-1.29.25-3.09.43-1.8.18-4.34.35-7.62.51,0,2.24-.01,4.46-.04,6.65-.03,2.19-.07,4.2-.12,6.02,5.06.05,8.74.14,11.06.27,2.32.13,3.58.3,3.79.51.21.26.22.76.04,1.49-.18.73-.47,1.5-.86,2.31-.39.81-.81,1.6-1.25,2.38-.44.78-.79,1.33-1.06,1.64-.1.1-.73.14-1.88.12-1.15-.03-2.42-.09-3.83-.2s-2.76-.22-4.07-.35c-1.3-.13-2.16-.25-2.58-.35-.78-.26-1.62-.69-2.5-1.29-.89-.6-1.59-1.37-2.11-2.31-.1-.26-.27-1.13-.51-2.62s-.48-3.37-.74-5.67c-.26-2.29-.52-4.87-.78-7.74-.26-2.87-.52-5.79-.78-8.76-.26-2.97-.5-5.89-.7-8.76-.21-2.87-.38-5.46-.51-7.78-.13-2.32-.2-4.25-.2-5.79s.08-2.46.23-2.78c.16-.42.89-.73,2.19-.94,1.3-.21,2.87-.35,4.69-.43,1.82-.08,3.79-.09,5.9-.04,2.11.05,4.08.14,5.9.27,1.82.13,3.36.29,4.61.47s1.96.35,2.11.51c.21.26.33.86.35,1.8.03.94-.03,1.97-.16,3.09-.13,1.12-.31,2.19-.55,3.21-.24,1.02-.48,1.68-.74,1.99Z" fill="#e0d08d" stroke-width="0"/><path d="M78.15,30.16c.05.57-.04,1.46-.27,2.66-.23,1.2-.57,2.4-1.02,3.6-.44,1.2-1.02,2.24-1.72,3.13-.7.89-1.5,1.33-2.38,1.33-.62,0-1.13-.5-1.52-1.49s-.68-2.15-.86-3.48-.33-2.64-.43-3.95c-.11-1.3-.21-2.21-.31-2.74-.16-.26-.46-.51-.9-.74-.44-.23-.87-.35-1.29-.35s-.89.34-1.41,1.02c-.52.68-1.03,1.46-1.52,2.35-.5.89-.91,1.77-1.25,2.66-.34.89-.48,1.54-.43,1.95,0,.31.34.86,1.02,1.64.68.78,1.53,1.71,2.54,2.78,1.02,1.07,2.11,2.22,3.28,3.44,1.17,1.23,2.25,2.45,3.24,3.67.99,1.23,1.84,2.38,2.54,3.48.7,1.09,1.08,2.03,1.13,2.81.05.94-.2,2.14-.74,3.6-.55,1.46-1.24,2.87-2.07,4.22-.83,1.36-1.72,2.53-2.66,3.52-.94.99-1.77,1.51-2.5,1.56-.73.05-1.79-.35-3.17-1.21-1.38-.86-2.76-1.88-4.14-3.05s-2.61-2.33-3.67-3.48c-1.07-1.15-1.68-1.98-1.84-2.5-.16-.47-.25-1.09-.27-1.88-.03-.78,0-1.56.08-2.34.08-.78.22-1.45.43-1.99s.47-.82.78-.82.94.54,1.88,1.6c.94,1.07,1.96,2.27,3.05,3.6s2.16,2.53,3.21,3.6c1.04,1.07,1.8,1.6,2.27,1.6.26,0,.55-.2.86-.59.31-.39.6-.85.86-1.37.26-.52.48-1.06.67-1.6.18-.55.27-.98.27-1.29-.05-.47-.47-1.15-1.25-2.03-.78-.89-1.77-1.88-2.97-2.97-1.2-1.09-2.5-2.25-3.91-3.48-1.41-1.22-2.71-2.38-3.91-3.48-1.2-1.09-2.19-2.08-2.97-2.97-.78-.89-1.2-1.56-1.25-2.03-.05-.47.1-1.21.47-2.23.36-1.02.83-2.14,1.41-3.36.57-1.22,1.24-2.49,1.99-3.79.75-1.3,1.52-2.5,2.31-3.6.78-1.09,1.55-1.99,2.31-2.7.75-.7,1.42-1.06,1.99-1.06,1.15,0,2.51.31,4.1.94,1.59.62,3.11,1.39,4.57,2.31,1.46.91,2.71,1.86,3.75,2.85,1.04.99,1.59,1.88,1.64,2.66Z" fill="#e0d08d" stroke-width="0"/><path d="M95.71,25.86c-.21-.21-.65-.42-1.33-.62-.68-.21-1.15-.13-1.41.23-.16.21-.42.89-.78,2.03-.37,1.15-.74,2.61-1.13,4.38-.39,1.77-.73,3.81-1.02,6.1-.29,2.29-.43,4.67-.43,7.11,0,1.77.08,3.45.23,5.04.16,1.59.35,2.98.59,4.18.23,1.2.52,2.16.86,2.89.34.73.69,1.12,1.06,1.17.31,0,.69-.36,1.13-1.09.44-.73.89-1.58,1.33-2.54.44-.96.83-1.88,1.17-2.74.34-.86.59-1.42.74-1.68.42-.68.96-1.26,1.64-1.76.68-.5,1.25-.74,1.72-.74.26,0,.46.18.59.55.13.37.24.79.31,1.29s.12,1,.12,1.52v1.25c0,.57-.11,1.64-.31,3.21s-.51,3.15-.9,4.77c-.39,1.62-.83,3.05-1.33,4.3-.5,1.25-1.03,1.85-1.6,1.8-.57-.05-1.43-.31-2.58-.78-1.15-.47-2.31-1.02-3.48-1.64-1.17-.63-2.24-1.26-3.21-1.92-.96-.65-1.55-1.16-1.76-1.52-.21-.36-.52-1.26-.94-2.7-.42-1.43-.85-3.19-1.29-5.28-.44-2.08-.82-4.38-1.13-6.88-.31-2.5-.47-5-.47-7.51s.06-4.98.2-7.43c.13-2.45.35-4.64.67-6.57.31-1.93.72-3.49,1.21-4.69.49-1.2,1.11-1.82,1.84-1.88,2.03-.21,4.08-.04,6.14.51,2.06.55,3.91,1.28,5.55,2.19,1.64.91,2.98,1.88,4.03,2.89,1.04,1.02,1.59,1.86,1.64,2.54.05.73.01,1.75-.12,3.05-.13,1.3-.31,2.62-.55,3.95s-.5,2.53-.78,3.6c-.29,1.07-.54,1.68-.74,1.84-.47.47-1.02.96-1.64,1.49-.62.52-1.22.62-1.8.31-.21-.1-.39-.51-.55-1.21-.16-.7-.3-1.58-.43-2.62-.13-1.04-.25-2.16-.35-3.36-.1-1.2-.2-2.31-.27-3.32s-.16-1.88-.23-2.58c-.08-.7-.14-1.08-.2-1.13Z" fill="#e0d08d" stroke-width="0"/><path d="M129.3,27.5c.31.37.6.74.86,1.13.26.39.5.91.7,1.56.21.65.38,1.5.51,2.54.13,1.04.2,2.4.2,4.07,0,2.66-.07,5.33-.2,8.01-.13,2.68-.25,5.04-.35,7.08-.05,1.83-.11,3.52-.16,5.08-.05,1.56-.11,2.93-.16,4.1-.05,1.17-.12,2.1-.2,2.78-.08.68-.14,1.04-.2,1.09-.21.16-.54.09-.98-.2-.44-.29-.91-.66-1.41-1.13-.5-.47-.95-.96-1.37-1.49-.42-.52-.68-.94-.78-1.25,0-.26-.08-1.02-.23-2.27-1.25.73-2.63,1.24-4.14,1.53-1.51.29-3.01.39-4.5.31s-2.85-.35-4.1-.82-2.19-1.09-2.81-1.88c-.26-.31-.48-.78-.67-1.41-.18-.63-.34-1.34-.47-2.15-.13-.81-.25-1.67-.35-2.58-.11-.91-.18-1.76-.23-2.54-.11-2.03.16-3.79.78-5.28.63-1.49,1.77-2.59,3.44-3.32.73-.31,1.71-.48,2.93-.51,1.22-.03,2.45.03,3.67.16,1.22.13,2.33.29,3.32.47s1.62.33,1.88.43c-.21-2.66-.37-4.96-.47-6.92-.1-1.96-.31-3.22-.62-3.79-.26-.36-.57-.73-.94-1.09-.31-.26-.73-.55-1.25-.86-.52-.31-1.15-.55-1.88-.7-.57-.1-1.09.13-1.56.7-.42.52-.8,1.45-1.13,2.78-.34,1.33-.54,3.35-.59,6.06-1.83.05-3.22.04-4.18-.04-.96-.08-1.68-.17-2.15-.27-.57-.1-.91-.23-1.02-.39-.11-.21-.05-.98.16-2.31.21-1.33.51-2.78.9-4.34.39-1.56.86-3.05,1.41-4.46.55-1.41,1.13-2.29,1.76-2.66,1.25-.73,2.75-.99,4.5-.78,1.75.21,3.45.65,5.12,1.33,1.67.68,3.15,1.43,4.46,2.27,1.3.83,2.14,1.49,2.5,1.96ZM124.45,50.33c0-.26.03-.61.08-1.06.05-.44.08-.9.08-1.37s-.01-.91-.04-1.33c-.03-.42-.09-.73-.2-.94-.16-.31-.61-.57-1.37-.78-.76-.21-1.6-.35-2.54-.43-.94-.08-1.83-.1-2.66-.08-.83.03-1.41.14-1.72.35-.42.26-.72.62-.9,1.09-.18.47-.3,1.2-.35,2.19,0,.47.03.96.08,1.49.05.52.12,1.03.2,1.53s.18.93.31,1.29c.13.37.27.6.43.7.36.26,1,.48,1.92.67.91.18,1.84.23,2.78.16s1.8-.38,2.58-.9c.78-.52,1.22-1.38,1.33-2.58Z" fill="#e0d08d" stroke-width="0"/><path d="M157.26,20.85c.52.31,1.03.87,1.52,1.68.5.81.95,1.75,1.37,2.81.42,1.07.76,2.22,1.02,3.44s.39,2.38.39,3.48-.2,2.72-.59,4.73c-.39,2.01-.85,4.03-1.37,6.06-.52,2.03-1.02,3.86-1.49,5.47-.47,1.62-.78,2.58-.94,2.89-.31,1.2-.73,2.06-1.25,2.58-.52.42-1.21.72-2.07.9-.86.18-1.73.3-2.62.35-.89.05-1.75.04-2.58-.04-.83-.08-1.49-.2-1.96-.35-.05,0-.23-.05-.55-.16,0,2.09-.03,4.22-.08,6.41-.05,1.88-.11,3.98-.16,6.29-.05,2.32-.11,4.65-.16,7-.11.47-.3,1.02-.59,1.64-.29.62-.64,1.21-1.06,1.76-.42.55-.85,1-1.29,1.37-.44.36-.85.5-1.21.39-.21-.05-.43-.95-.66-2.7-.23-1.75-.47-4.04-.7-6.88s-.48-6.08-.74-9.73c-.26-3.65-.5-7.38-.7-11.18-.21-3.8-.38-7.54-.51-11.22-.13-3.67-.23-6.96-.31-9.85s-.09-5.26-.04-7.11c.05-1.85.18-2.85.39-3.01.16-.16.47-.14.94.04.47.18,1,.5,1.6.94.6.44,1.22.99,1.88,1.64.65.65,1.24,1.37,1.76,2.15,2.55-1.15,4.98-1.96,7.27-2.42,2.29-.47,4.12-.26,5.47.63ZM153.97,32.34c0-.83-.12-1.65-.35-2.46-.24-.81-.54-1.51-.9-2.11-.37-.6-.74-1.07-1.13-1.41-.39-.34-.74-.46-1.06-.35-1.3.31-2.4.68-3.28,1.09-.47.21-.86.44-1.17.7.1,1.67.17,3.95.2,6.84.03,2.89.04,6.06.04,9.5,0,1.51.05,2.53.16,3.05.05,1.25.36,2.11.94,2.58.16.16.39.33.7.51.31.18.65.34,1.02.47.36.13.73.21,1.09.24.36.03.68-.07.94-.27.05-.05.17-.53.35-1.45.18-.91.38-2.03.59-3.36.21-1.33.43-2.76.67-4.3.23-1.54.44-2.97.62-4.3s.33-2.46.43-3.4c.1-.94.16-1.46.16-1.56Z" fill="#e0d08d" stroke-width="0"/><path d="M189.83,47.28c-.05.1-.68.31-1.88.62-1.2.31-2.63.64-4.3.98-1.67.34-3.44.68-5.32,1.02-1.88.34-3.49.61-4.85.82.26,2.09.57,3.95.94,5.59.36,1.64.68,2.67.94,3.09.26.37.6.7,1.02,1.02.36.26.82.51,1.37.74.55.23,1.21.4,1.99.51.57.16,1.12-.05,1.64-.63.42-.52.79-1.43,1.13-2.74.34-1.3.51-3.36.51-6.18,1.62-.26,2.88-.42,3.79-.47.91-.05,1.58-.05,1.99,0,.52.05.83.13.94.23.05.16.05.55,0,1.17-.05.63-.17,1.4-.35,2.31-.18.91-.39,1.9-.62,2.97-.24,1.07-.51,2.08-.82,3.05-.31.97-.65,1.83-1.02,2.58-.37.76-.76,1.29-1.17,1.6-1.25.94-2.81,1.39-4.69,1.37-1.88-.03-3.73-.29-5.55-.78-1.83-.5-3.47-1.09-4.93-1.8-1.46-.7-2.37-1.29-2.74-1.76-.26-.31-.5-1.11-.7-2.38-.21-1.28-.38-2.83-.51-4.65-.13-1.82-.22-3.83-.27-6.02-.05-2.19-.01-4.33.12-6.41.13-2.08.34-4.01.62-5.79.29-1.77.69-3.21,1.21-4.3.78-1.56,2.06-2.84,3.83-3.83,1.77-.99,3.65-1.67,5.63-2.03,1.98-.36,3.87-.42,5.67-.16,1.8.26,3.14.83,4.03,1.72.52.52.99,1.55,1.41,3.09.42,1.54.68,3.4.78,5.59,0,.21.03.81.08,1.8s.09,2.05.12,3.17c.03,1.12.04,2.18.04,3.17s-.03,1.56-.08,1.72ZM172.86,46.03c.83-.31,1.78-.67,2.85-1.06,1.07-.39,2.1-.75,3.09-1.09.99-.34,1.88-.64,2.66-.9.78-.26,1.35-.47,1.72-.62-.05-.57-.12-1.24-.2-1.99-.08-.75-.17-1.49-.27-2.19-.11-.7-.23-1.32-.39-1.84-.16-.52-.31-.83-.47-.94-.42-.16-1.11-.3-2.07-.43-.96-.13-1.96-.09-2.97.12-1.02.21-1.94.6-2.78,1.17-.83.57-1.3,1.49-1.41,2.74-.1.83-.13,1.88-.08,3.13.05,1.25.16,2.55.31,3.91Z" fill="#e0d08d" stroke-width="0"/><path d="M41.18,83.36c.23.3.51,1.83.85,4.59.34,2.76.72,6.18,1.13,10.26.41,4.08.85,8.52,1.3,13.32.45,4.8.87,9.41,1.25,13.83.38,4.42.72,8.35,1.02,11.79.3,3.44.53,5.84.68,7.2.23,2.04.58,4.54,1.08,7.48.49,2.95.98,5.84,1.47,8.67.49,2.83.89,5.31,1.19,7.43.3,2.12.34,3.36.11,3.74-.23.38-.98.34-2.27-.11-1.29-.45-2.68-1.09-4.19-1.93-1.51-.83-2.93-1.74-4.25-2.72-1.32-.98-2.17-1.81-2.55-2.49-.38-.75-.79-2.02-1.25-3.8-.45-1.77-.95-4.14-1.47-7.08-.98,1.81-2.08,3.67-3.29,5.55-1.21,1.89-2.38,3.63-3.51,5.21s-2.17,2.89-3.12,3.91c-.95,1.02-1.64,1.49-2.1,1.42-.76-.07-1.91-1.08-3.46-3-1.55-1.93-3.12-4.12-4.7-6.58-1.59-2.46-3-4.8-4.25-7.03-1.25-2.23-1.95-3.72-2.1-4.48-.08-.45-.11-1.49-.11-3.12s.02-3.57.06-5.84c.04-2.27.11-4.74.23-7.43.11-2.68.23-5.33.34-7.94s.23-5.08.34-7.43c.11-2.34.25-4.27.4-5.78.15-2.34.36-4.78.62-7.31.26-2.53.53-4.89.79-7.09.26-2.19.53-4.06.79-5.61.26-1.55.51-2.51.74-2.89.15-.3.62-.49,1.42-.57.79-.07,1.68-.02,2.66.17.98.19,1.89.49,2.72.91.83.42,1.4.93,1.7,1.53.15.38.24,1.87.28,4.48.04,2.61.06,5.72.06,9.35s-.02,7.54-.06,11.73c-.04,4.19-.1,8.14-.17,11.85-.08,3.7-.13,6.86-.17,9.47-.04,2.61-.06,4.14-.06,4.59,0,.83.58,2.14,1.76,3.91,1.17,1.78,2.25,3.91,3.23,6.41l7.14-8.05c-.08-2.12-.13-4.84-.17-8.16-.04-3.33-.1-6.86-.17-10.6-.08-3.74-.13-7.52-.17-11.34-.04-3.82-.06-7.31-.06-10.49s.02-5.8.06-7.88c.04-2.08.09-3.27.17-3.57.23-.6.7-1.49,1.42-2.66.72-1.17,1.49-2.27,2.32-3.29.83-1.02,1.66-1.83,2.49-2.44.83-.6,1.43-.64,1.81-.11Z" fill="#e0d08d" stroke-width="0"/><path d="M104.51,103.54c1.43,1.21,2.49,3.61,3.17,7.2.68,3.59.94,7.58.79,11.96-.08,1.36-.27,3.23-.57,5.61-.3,2.38-.66,4.99-1.08,7.82-.42,2.83-.87,5.73-1.36,8.67-.49,2.95-.96,5.67-1.42,8.16-.45,2.49-.85,4.59-1.19,6.29-.34,1.7-.55,2.7-.62,3-.15.53-.57,1.06-1.25,1.59-.68.53-1.38.96-2.1,1.3-.72.34-1.42.57-2.1.68-.68.11-1.1-.02-1.25-.4-.08-.23-.08-1.4,0-3.51.07-2.12.19-4.74.34-7.88.15-3.14.32-6.5.51-10.09.19-3.59.36-6.97.51-10.15.15-3.17.3-5.88.45-8.11.15-2.23.23-3.57.23-4.02.08-2.34-.11-4.4-.57-6.18-.45-1.78-1.21-2.66-2.27-2.66-.38,0-.83.17-1.36.51-.53.34-1.04.74-1.53,1.19-.49.45-.95.95-1.36,1.47-.42.53-.62,1.02-.62,1.47-.08,1.36-.17,3.36-.28,6.01-.11,2.65-.23,5.56-.34,8.73s-.23,6.42-.34,9.75c-.11,3.33-.23,6.39-.34,9.18-.11,2.8-.21,5.12-.28,6.97-.08,1.85-.15,2.89-.23,3.12-.15.3-.62.51-1.42.62-.79.11-1.68.13-2.66.06-.98-.07-1.87-.26-2.66-.57-.79-.3-1.27-.72-1.42-1.25-.15-.38-.27-1.53-.34-3.46-.08-1.93-.17-4.25-.28-6.97s-.21-5.65-.28-8.79c-.08-3.14-.15-6.07-.23-8.79-.08-2.72-.13-5.06-.17-7.03-.04-1.96-.06-3.17-.06-3.63,0-1.81-.15-3.27-.45-4.37-.3-1.09-.66-1.96-1.08-2.61-.42-.64-.89-1.06-1.42-1.25-.53-.19-1.06-.28-1.59-.28-.23,0-.57.17-1.02.51-.45.34-.91.83-1.36,1.47-.45.64-.83,1.36-1.13,2.15-.3.79-.42,1.64-.34,2.55,0,.38.04,1.78.11,4.19.07,2.42.13,5.33.17,8.73.04,3.4.09,7.07.17,11,.07,3.93.13,7.58.17,10.94.04,3.36.06,6.2.06,8.5v3.68c-.15.38-.57.59-1.25.62-.68.04-1.44-.09-2.27-.4-.83-.3-1.63-.74-2.38-1.3-.76-.57-1.29-1.26-1.59-2.1-.15-.6-.38-1.93-.68-3.97-.3-2.04-.64-4.48-1.02-7.31-.38-2.83-.76-5.9-1.13-9.18-.38-3.29-.76-6.46-1.13-9.52-.38-3.06-.7-5.84-.96-8.33-.27-2.49-.47-4.38-.62-5.67-.23-1.81-.47-3.8-.74-5.95-.27-2.15-.49-4.23-.68-6.23-.19-2-.32-3.74-.4-5.21-.08-1.47,0-2.4.23-2.78.15-.3.7-.41,1.64-.34.94.08,1.96.28,3.06.62,1.09.34,2.15.79,3.17,1.36,1.02.57,1.68,1.15,1.98,1.76.23.45.47,1,.74,1.64.26.64.55,1.64.85,3,1.28-.98,2.61-1.91,3.97-2.78,1.36-.87,2.72-1.55,4.08-2.04,1.36-.49,2.66-.75,3.91-.79,1.25-.04,2.44.32,3.57,1.08.98.76,1.93,2.08,2.83,3.97,3.63-2.04,7.12-3.46,10.49-4.25,3.36-.79,6.03-.47,7.99.96Z" fill="#e0d08d" stroke-width="0"/><path d="M144.94,110.68c.75.45,1.53,1.27,2.32,2.44.79,1.17,1.51,2.55,2.15,4.14.64,1.59,1.15,3.27,1.53,5.04.38,1.78.57,3.46.57,5.04,0,1.13-.13,2.7-.4,4.71-.27,2-.62,4.19-1.08,6.58-.45,2.38-.95,4.84-1.47,7.37-.53,2.53-1.04,4.86-1.53,6.97-.49,2.12-.93,3.91-1.3,5.38-.38,1.47-.64,2.36-.79,2.66-.38.91-.7,1.68-.96,2.32-.27.64-.59,1.12-.96,1.42-.83.61-1.89,1.04-3.17,1.3-1.29.27-2.61.44-3.97.51-1.36.08-2.66.06-3.91-.06s-2.21-.28-2.89-.51c-.3-.07-.62-.17-.96-.28s-.7-.24-1.08-.4c-.76,1.29-1.63,2.44-2.61,3.46-.98,1.02-1.89,1.46-2.72,1.3-.3-.08-.62-1.32-.96-3.74-.34-2.42-.7-5.61-1.08-9.58-.38-3.97-.76-8.48-1.13-13.55-.38-5.06-.72-10.26-1.02-15.59-.3-5.33-.57-10.56-.79-15.7-.23-5.14-.4-9.73-.51-13.77-.11-4.04-.13-7.37-.06-9.98.07-2.61.26-4.03.57-4.25.3-.23,1-.06,2.1.51,1.09.57,2.29,1.4,3.57,2.49,1.28,1.1,2.47,2.4,3.57,3.91,1.09,1.51,1.83,3.06,2.21,4.65.23,1.21.4,3.29.51,6.24s.17,6.42.17,10.43c3.32-1.28,6.41-2.11,9.24-2.49,2.83-.38,5.12-.04,6.86,1.02ZM140.06,127.35c0-1.21-.19-2.4-.57-3.57-.38-1.17-.83-2.19-1.36-3.06-.53-.87-1.1-1.53-1.7-1.98-.61-.45-1.13-.6-1.59-.45-.83.15-1.63.36-2.38.62-.76.27-1.4.51-1.93.74-.68.3-1.25.57-1.7.79-.08,4.46-.17,9-.28,13.6-.11,4.61-.17,8.92-.17,12.92,0,1.97.04,3.68.11,5.16.07,1.47.11,2.4.11,2.78.23,1.81.72,3.1,1.47,3.85.23.15.58.36,1.08.62.49.27,1.02.49,1.59.68.57.19,1.11.3,1.64.34.53.04.98-.09,1.36-.4.07-.08.24-.92.51-2.55.26-1.62.55-3.61.85-5.95.3-2.34.62-4.89.96-7.65.34-2.76.66-5.33.96-7.71.3-2.38.55-4.4.74-6.07.19-1.66.28-2.57.28-2.72Z" fill="#e0d08d" stroke-width="0"/><path d="M184.57,108.87c.6.38,1.19,1.12,1.76,2.21.57,1.1,1.09,2.34,1.59,3.74.49,1.4.91,2.89,1.25,4.48s.64,3.06.91,4.42c.26,1.36.43,2.51.51,3.46.07.95.07,1.53,0,1.76-.15.3-.61.61-1.36.91-.68.3-1.7.64-3.06,1.02-1.36.38-3.25.79-5.67,1.25-.15-4.16-.45-7.31-.91-9.47-.45-2.15-.95-3.68-1.47-4.59-.61-1.06-1.25-1.59-1.93-1.59-.68.3-1.29.66-1.81,1.08-.53.42-.98.85-1.36,1.3-.45.53-.87,1.1-1.25,1.7-.15.23-.3.76-.45,1.59-.15.83-.3,2.08-.45,3.74,0,.53-.02,1.63-.06,3.29-.04,1.66-.08,3.59-.11,5.78-.04,2.19-.08,4.5-.11,6.92-.04,2.42-.08,4.67-.11,6.75-.04,2.08-.08,3.84-.11,5.27-.04,1.44-.1,2.27-.17,2.49-.15.38-.53.91-1.13,1.59-.61.68-1.29,1.3-2.04,1.87-.76.57-1.47,1.02-2.15,1.36-.68.34-1.13.32-1.36-.06-.23-.23-.45-1.21-.68-2.95-.23-1.74-.47-3.87-.74-6.41-.27-2.53-.55-5.31-.85-8.33-.3-3.02-.57-5.93-.79-8.73-.23-2.79-.42-5.31-.57-7.54-.15-2.23-.27-3.83-.34-4.82-.08-1.43-.15-3.02-.23-4.76-.08-1.74-.13-3.38-.17-4.93-.04-1.55-.04-2.91,0-4.08.04-1.17.17-1.87.4-2.1.15-.23.66-.28,1.53-.17.87.11,1.81.34,2.83.68,1.02.34,1.98.78,2.89,1.3.91.53,1.51,1.02,1.81,1.47.23.38.45.95.68,1.7,1.44-.75,2.82-1.45,4.14-2.1,1.32-.64,2.61-1.11,3.86-1.42,1.25-.3,2.47-.4,3.68-.28,1.21.11,2.42.51,3.63,1.19Z" fill="#e0d08d" stroke-width="0"/><path d="M227.04,111.02c.45.53.87,1.08,1.25,1.64.38.57.72,1.32,1.02,2.27.3.95.55,2.17.74,3.68.19,1.51.28,3.48.28,5.9,0,3.85-.1,7.73-.28,11.62-.19,3.89-.36,7.31-.51,10.26-.08,2.65-.15,5.1-.23,7.37-.08,2.27-.15,4.25-.23,5.95-.08,1.7-.17,3.04-.28,4.03-.11.98-.21,1.51-.28,1.59-.3.23-.78.13-1.42-.28-.64-.42-1.32-.96-2.04-1.64-.72-.68-1.38-1.4-1.98-2.15-.61-.75-.98-1.36-1.13-1.81,0-.38-.11-1.47-.34-3.29-1.81,1.06-3.82,1.8-6.01,2.21-2.19.42-4.36.57-6.52.45s-4.14-.51-5.95-1.19c-1.81-.68-3.17-1.59-4.08-2.72-.38-.45-.7-1.13-.96-2.04-.27-.91-.49-1.95-.68-3.12-.19-1.17-.36-2.42-.51-3.74-.15-1.32-.27-2.55-.34-3.68-.15-2.95.23-5.5,1.13-7.65s2.57-3.76,4.99-4.82c1.06-.45,2.47-.7,4.25-.74,1.78-.04,3.55.04,5.33.23,1.77.19,3.38.42,4.82.68,1.44.27,2.34.47,2.72.62-.3-3.85-.53-7.2-.68-10.03-.15-2.83-.45-4.67-.91-5.5-.38-.53-.83-1.06-1.36-1.59-.45-.38-1.06-.79-1.81-1.25-.76-.45-1.66-.79-2.72-1.02-.83-.15-1.59.19-2.27,1.02-.61.76-1.15,2.1-1.64,4.03-.49,1.93-.78,4.86-.85,8.79-2.65.08-4.67.06-6.07-.06-1.4-.11-2.44-.24-3.12-.4-.83-.15-1.32-.34-1.47-.57-.15-.3-.08-1.42.23-3.34.3-1.93.74-4.02,1.3-6.29.57-2.27,1.25-4.42,2.04-6.46.79-2.04,1.64-3.33,2.55-3.85,1.81-1.06,3.99-1.43,6.52-1.13,2.53.3,5.01.95,7.43,1.93,2.42.98,4.57,2.08,6.46,3.29,1.89,1.21,3.1,2.15,3.63,2.83ZM220.01,144.12c0-.38.04-.89.11-1.53.07-.64.11-1.3.11-1.98s-.02-1.32-.06-1.93c-.04-.6-.13-1.06-.28-1.36-.23-.45-.89-.83-1.98-1.13-1.1-.3-2.32-.51-3.68-.62s-2.65-.15-3.85-.11c-1.21.04-2.04.21-2.49.51-.61.38-1.04.91-1.3,1.59-.27.68-.44,1.74-.51,3.17,0,.68.04,1.4.11,2.15.07.76.17,1.49.28,2.21.11.72.26,1.34.45,1.87.19.53.4.87.62,1.02.53.38,1.45.7,2.78.96,1.32.27,2.66.34,4.02.23s2.61-.55,3.74-1.3c1.13-.75,1.78-2,1.93-3.74Z" fill="#e0d08d" stroke-width="0"/><path d="M68.12,194.48c.15.29.24,1.31.27,3.06.04,1.75.04,3.86,0,6.34-.04,2.48-.13,5.12-.27,7.92-.15,2.81-.33,5.45-.55,7.92-.15,1.39-.38,3.46-.71,6.23-.33,2.77-.71,5.83-1.15,9.18-.44,3.35-.89,6.8-1.37,10.33-.47,3.54-.93,6.78-1.37,9.73s-.82,5.41-1.15,7.38c-.33,1.97-.57,3.03-.71,3.17-.29.22-.76.75-1.42,1.58-.66.84-1.37,1.68-2.13,2.51-.76.84-1.48,1.51-2.13,2.02-.66.51-1.09.58-1.31.22-.15-.73-.22-2.99-.22-6.78,0-1.6.02-3.62.05-6.07.04-2.44.11-5.41.22-8.91.11-3.5.27-7.58.49-12.24.22-4.66.47-10.06.77-16.18-1.46,4.96-2.75,9.33-3.88,13.12-1.13,3.79-2.11,7.09-2.95,9.89-.84,2.81-1.55,5.17-2.13,7.11-.58,1.93-1.09,3.52-1.53,4.75-.95,2.92-1.57,4.63-1.86,5.14-.29.07-.75-.15-1.37-.66-.62-.51-1.31-1.26-2.08-2.24-.76-.98-1.53-2.17-2.29-3.55-.77-1.38-1.4-2.91-1.91-4.59-.51-1.53-1.17-3.57-1.97-6.12-.73-2.19-1.68-5.04-2.84-8.58-1.17-3.53-2.59-7.96-4.26-13.28.44,5.98.8,11.22,1.09,15.74.29,4.52.53,8.45.71,11.81.18,3.35.33,6.18.44,8.47.11,2.29.16,4.21.16,5.74.07,3.5-.04,5.5-.33,6.01-.73,0-1.51-.35-2.35-1.04-.84-.69-1.64-1.53-2.41-2.51-.77-.98-1.42-1.95-1.97-2.9-.55-.95-.86-1.64-.93-2.08-.07-.29-.29-1.64-.66-4.04-.37-2.4-.78-5.48-1.26-9.24-.47-3.75-.98-7.98-1.53-12.68-.55-4.7-1.06-9.49-1.53-14.37-.47-4.88-.86-9.64-1.15-14.26-.29-4.63-.44-8.76-.44-12.41,0-.58.73-1.37,2.19-2.35,1.46-.98,3.12-1.93,4.97-2.84,1.86-.91,3.59-1.71,5.19-2.4,1.6-.69,2.59-1.04,2.95-1.04.29,0,.6.84.93,2.51.33,1.68.71,3.79,1.15,6.34.44,2.55.91,5.39,1.42,8.53.51,3.13,1.09,6.12,1.75,8.96.51,2.92,1.13,5.94,1.86,9.07.58,2.7,1.26,5.67,2.02,8.91.76,3.24,1.62,6.39,2.57,9.46,1.02-4.44,1.95-8.47,2.79-12.08.84-3.61,1.58-6.68,2.24-9.24.8-2.99,1.49-5.65,2.08-7.98,1.31-5.68,2.6-10.17,3.88-13.45,1.27-3.28,2.09-5.21,2.46-5.79.22-.29,1-.36,2.35-.22,1.35.15,2.82.38,4.43.71,1.6.33,3.08.71,4.43,1.15,1.35.44,2.09.8,2.24,1.09Z" fill="#e0d08d" stroke-width="0"/><path d="M105.13,212.41c.44.51.84,1.04,1.2,1.58.36.55.69,1.28.98,2.19.29.91.53,2.1.71,3.55.18,1.46.27,3.35.27,5.68,0,3.72-.09,7.45-.27,11.2-.18,3.75-.35,7.05-.49,9.89-.07,2.55-.15,4.92-.22,7.11-.07,2.19-.15,4.1-.22,5.74-.07,1.64-.16,2.93-.27,3.88-.11.95-.2,1.46-.27,1.53-.29.22-.75.13-1.37-.27-.62-.4-1.28-.93-1.97-1.58-.69-.66-1.33-1.35-1.91-2.08-.58-.73-.95-1.31-1.09-1.75,0-.36-.11-1.42-.33-3.17-1.75,1.02-3.68,1.73-5.79,2.13-2.11.4-4.21.55-6.29.44s-3.99-.49-5.74-1.15c-1.75-.66-3.06-1.53-3.93-2.62-.37-.44-.67-1.09-.93-1.97-.26-.87-.47-1.88-.66-3.01-.18-1.13-.35-2.33-.49-3.61-.15-1.27-.26-2.46-.33-3.55-.15-2.84.22-5.3,1.09-7.38.87-2.08,2.48-3.62,4.81-4.65,1.02-.44,2.39-.67,4.1-.71,1.71-.04,3.42.04,5.14.22,1.71.18,3.26.4,4.65.66,1.38.26,2.26.46,2.62.6-.29-3.72-.51-6.94-.66-9.67-.15-2.73-.44-4.5-.87-5.3-.37-.51-.8-1.02-1.31-1.53-.44-.36-1.02-.76-1.75-1.2-.73-.44-1.6-.76-2.62-.98-.8-.15-1.53.18-2.19.98-.58.73-1.11,2.02-1.58,3.88-.47,1.86-.75,4.68-.82,8.47-2.55.07-4.5.05-5.85-.05-1.35-.11-2.35-.24-3.01-.38-.8-.15-1.28-.33-1.42-.55-.15-.29-.07-1.37.22-3.22.29-1.86.71-3.88,1.26-6.07.55-2.19,1.2-4.26,1.97-6.23.77-1.97,1.58-3.21,2.46-3.72,1.75-1.02,3.84-1.38,6.29-1.09,2.44.29,4.83.91,7.16,1.86,2.33.95,4.41,2.01,6.23,3.17,1.82,1.17,2.99,2.08,3.5,2.73ZM98.36,244.33c0-.36.04-.86.11-1.48.07-.62.11-1.26.11-1.91s-.02-1.27-.05-1.86c-.04-.58-.13-1.02-.27-1.31-.22-.44-.86-.8-1.91-1.09-1.06-.29-2.24-.49-3.55-.6-1.31-.11-2.55-.14-3.72-.11-1.17.04-1.97.2-2.4.49-.58.37-1,.88-1.26,1.53-.26.66-.42,1.68-.49,3.06,0,.66.04,1.35.11,2.08.07.73.16,1.44.27,2.13.11.69.25,1.29.44,1.8.18.51.38.84.6.98.51.37,1.4.67,2.68.93,1.27.26,2.57.33,3.88.22,1.31-.11,2.51-.53,3.61-1.26,1.09-.73,1.71-1.93,1.86-3.61Z" fill="#e0d08d" stroke-width="0"/><path d="M149.14,224.11c0,1.17-.13,2.84-.38,5.03-.26,2.19-.6,4.57-1.04,7.16-.44,2.59-.89,5.25-1.37,7.98-.48,2.73-.95,5.23-1.42,7.49-.48,2.26-.88,4.15-1.2,5.68-.33,1.53-.53,2.37-.6,2.51-.15.22-.53.35-1.15.38-.62.04-1.31-.02-2.08-.16-.77-.15-1.46-.36-2.08-.66-.62-.29-1-.66-1.15-1.09-.07-.29-.09-1.31-.05-3.06.04-1.75.11-3.84.22-6.29.11-2.44.24-5.06.38-7.87.15-2.8.31-5.43.49-7.87.18-2.44.33-4.54.44-6.29s.16-2.8.16-3.17c0-1.31-.13-2.57-.38-3.77-.26-1.2-.57-2.24-.93-3.12-.37-.87-.78-1.55-1.26-2.02-.47-.47-.89-.64-1.26-.49-.95.15-1.75.38-2.41.71-.66.33-1.2.67-1.64,1.04-.51.44-.91.95-1.2,1.53-.07.15-.2.58-.38,1.31-.18.73-.27,1.57-.27,2.51v3.12c0,1.79-.02,3.92-.05,6.39-.04,2.48-.07,5.16-.11,8.04-.04,2.88-.07,5.54-.11,7.98-.04,2.44-.09,4.54-.16,6.29-.07,1.75-.15,2.73-.22,2.95-.15.44-.51,1.04-1.09,1.8-.58.77-1.24,1.48-1.97,2.13-.73.66-1.42,1.15-2.08,1.48s-1.09.27-1.31-.16c-.22-.22-.44-1.29-.66-3.22-.22-1.93-.46-4.3-.71-7.11-.26-2.8-.53-5.87-.82-9.18-.29-3.32-.55-6.5-.77-9.56-.22-3.06-.4-5.83-.55-8.31-.15-2.48-.26-4.26-.33-5.36-.07-1.53-.15-3.26-.22-5.19-.07-1.93-.13-3.75-.16-5.47-.04-1.71-.04-3.21,0-4.48.04-1.27.16-2.06.38-2.35.15-.29.64-.36,1.48-.22.84.15,1.75.42,2.73.82.98.4,1.91.88,2.79,1.42.87.55,1.46,1.08,1.75,1.58.14.44.33.93.55,1.48.22.55.4,1.44.55,2.68,1.24-.73,2.59-1.4,4.04-2.02,1.46-.62,2.9-1.09,4.32-1.42s2.79-.44,4.1-.33c1.31.11,2.48.49,3.5,1.15.66.51,1.33,1.39,2.02,2.62.69,1.24,1.31,2.7,1.86,4.37.55,1.68.98,3.44,1.31,5.3s.49,3.63.49,5.3Z" fill="#e0d08d" stroke-width="0"/><path d="M182,210.11c.51.44,1,1.28,1.48,2.51.47,1.24.89,2.73,1.26,4.48.36,1.75.69,3.64.98,5.68.29,2.04.55,4.04.77,6.01s.38,3.81.49,5.52c.11,1.71.2,3.12.27,4.21.07,1.31.13,2.68.16,4.1.04,1.42.04,2.77,0,4.04-.04,1.28-.11,2.42-.22,3.44-.11,1.02-.27,1.79-.49,2.3-.44,1.09-1.19,1.84-2.24,2.24-1.06.4-2.24.67-3.55.82-.66.07-1.77.09-3.33.05-1.57-.04-3.24-.11-5.03-.22-1.79-.11-3.48-.24-5.08-.38-1.6-.15-2.81-.29-3.61-.44-1.6-.36-2.75-.84-3.44-1.42-.69-.58-1.37-1.42-2.02-2.51-.22-.44-.4-1.55-.55-3.33-.15-1.79-.24-3.94-.27-6.45-.04-2.51-.02-5.23.05-8.14.07-2.91.2-5.68.38-8.31.18-2.62.4-4.92.66-6.89.25-1.97.6-3.28,1.04-3.94.73-1.02,1.98-1.97,3.77-2.84,1.78-.88,3.41-1.57,4.86-2.08.73-.22,1.69-.38,2.9-.49s2.48-.11,3.83,0c1.35.11,2.64.33,3.88.66,1.24.33,2.26.78,3.06,1.37ZM175.88,244c.15-.29.31-1.18.49-2.68.18-1.49.33-3.3.44-5.41.11-2.11.18-4.37.22-6.78.04-2.41.05-4.63.05-6.67s-.07-3.77-.22-5.19c-.15-1.42-.33-2.24-.55-2.46-.37-.29-.89-.42-1.58-.38-.69.04-1.4.15-2.13.33-.73.18-1.38.4-1.97.66-.58.26-.98.49-1.2.71-.95.8-1.46,2.11-1.53,3.93,0,.51-.05,1.95-.16,4.32s-.16,4.92-.16,7.65.05,5.27.16,7.6c.11,2.33.34,3.75.71,4.26.36.51.89.89,1.58,1.15.69.26,1.42.38,2.19.38s1.49-.13,2.19-.38c.69-.25,1.18-.6,1.48-1.04Z" fill="#e0d08d" stroke-width="0"/><path d="M219.78,210.33c.58.37,1.15,1.08,1.69,2.13.55,1.06,1.06,2.26,1.53,3.61.47,1.35.88,2.79,1.2,4.32s.62,2.95.87,4.26c.25,1.31.42,2.42.49,3.33.07.91.07,1.48,0,1.69-.15.29-.58.58-1.31.88-.66.29-1.64.62-2.95.98-1.31.37-3.13.77-5.46,1.2-.15-4.01-.44-7.05-.88-9.13-.44-2.08-.91-3.55-1.42-4.43-.58-1.02-1.2-1.53-1.86-1.53-.66.29-1.24.64-1.75,1.04-.51.4-.95.82-1.31,1.26-.44.51-.84,1.06-1.2,1.64-.15.22-.29.73-.44,1.53-.15.8-.29,2.01-.44,3.61,0,.51-.02,1.57-.05,3.17-.04,1.6-.07,3.46-.11,5.58-.04,2.11-.07,4.34-.11,6.67-.04,2.33-.07,4.5-.11,6.5-.04,2-.07,3.7-.11,5.08-.04,1.38-.09,2.19-.16,2.4-.15.37-.51.88-1.09,1.53-.58.66-1.24,1.26-1.97,1.8-.73.55-1.42.98-2.08,1.31-.66.33-1.09.31-1.31-.05-.22-.22-.44-1.17-.66-2.84-.22-1.67-.46-3.73-.71-6.18-.26-2.44-.53-5.12-.82-8.03-.29-2.91-.55-5.72-.77-8.42-.22-2.7-.4-5.12-.55-7.27-.15-2.15-.26-3.7-.33-4.65-.07-1.38-.15-2.91-.22-4.59-.07-1.68-.13-3.26-.16-4.75-.04-1.49-.04-2.8,0-3.94.04-1.13.16-1.8.38-2.02.15-.22.64-.27,1.48-.16.84.11,1.75.33,2.73.66.98.33,1.91.75,2.79,1.26.87.51,1.46.98,1.75,1.42.22.37.44.91.66,1.64,1.38-.73,2.71-1.4,3.99-2.02,1.27-.62,2.51-1.07,3.72-1.37,1.2-.29,2.39-.38,3.55-.27,1.16.11,2.33.49,3.5,1.15Z" fill="#e0d08d" stroke-width="0"/><path d="M45.72,24.82c-.21.26-1.49.29-3.83.08-2.35-.21-6.05-.55-11.1-1.02,0,1.72.01,3.83.04,6.33.03,2.5.01,5.19-.04,8.05,3.91.37,6.96.7,9.15,1.02,2.19.31,3.33.52,3.44.62.21.21.29.64.23,1.29-.05.65-.18,1.37-.39,2.15-.21.78-.47,1.52-.78,2.23-.31.7-.62,1.16-.94,1.37-.26.1-1.29.25-3.09.43-1.8.18-4.34.35-7.62.51,0,2.24-.01,4.46-.04,6.65-.03,2.19-.07,4.2-.12,6.02,5.06.05,8.74.14,11.06.27,2.32.13,3.58.3,3.79.51.21.26.22.76.04,1.49-.18.73-.47,1.5-.86,2.31-.39.81-.81,1.6-1.25,2.38-.44.78-.79,1.33-1.06,1.64-.1.1-.73.14-1.88.12-1.15-.03-2.42-.09-3.83-.2s-2.76-.22-4.07-.35c-1.3-.13-2.16-.25-2.58-.35-.78-.26-1.62-.69-2.5-1.29-.89-.6-1.59-1.37-2.11-2.31-.1-.26-.27-1.13-.51-2.62s-.48-3.37-.74-5.67c-.26-2.29-.52-4.87-.78-7.74-.26-2.87-.52-5.79-.78-8.76-.26-2.97-.5-5.89-.7-8.76-.21-2.87-.38-5.46-.51-7.78-.13-2.32-.2-4.25-.2-5.79s.08-2.46.23-2.78c.16-.42.89-.73,2.19-.94,1.3-.21,2.87-.35,4.69-.43,1.82-.08,3.79-.09,5.9-.04,2.11.05,4.08.14,5.9.27,1.82.13,3.36.29,4.61.47s1.96.35,2.11.51c.21.26.33.86.35,1.8.03.94-.03,1.97-.16,3.09-.13,1.12-.31,2.19-.55,3.21-.24,1.02-.48,1.68-.74,1.99Z" fill="#1f1b25" stroke-width="0"/><path d="M74.15,31.16c.05.57-.04,1.46-.27,2.66-.23,1.2-.57,2.4-1.02,3.6-.44,1.2-1.02,2.24-1.72,3.13-.7.89-1.5,1.33-2.38,1.33-.62,0-1.13-.5-1.52-1.49s-.68-2.15-.86-3.48-.33-2.64-.43-3.95c-.11-1.3-.21-2.21-.31-2.74-.16-.26-.46-.51-.9-.74-.44-.23-.87-.35-1.29-.35s-.89.34-1.41,1.02c-.52.68-1.03,1.46-1.52,2.35-.5.89-.91,1.77-1.25,2.66-.34.89-.48,1.54-.43,1.95,0,.31.34.86,1.02,1.64.68.78,1.53,1.71,2.54,2.78,1.02,1.07,2.11,2.22,3.28,3.44,1.17,1.23,2.25,2.45,3.24,3.67.99,1.23,1.84,2.38,2.54,3.48.7,1.09,1.08,2.03,1.13,2.81.05.94-.2,2.14-.74,3.6-.55,1.46-1.24,2.87-2.07,4.22-.83,1.36-1.72,2.53-2.66,3.52-.94.99-1.77,1.51-2.5,1.56-.73.05-1.79-.35-3.17-1.21-1.38-.86-2.76-1.88-4.14-3.05s-2.61-2.33-3.67-3.48c-1.07-1.15-1.68-1.98-1.84-2.5-.16-.47-.25-1.09-.27-1.88-.03-.78,0-1.56.08-2.34.08-.78.22-1.45.43-1.99s.47-.82.78-.82.94.54,1.88,1.6c.94,1.07,1.96,2.27,3.05,3.6s2.16,2.53,3.21,3.6c1.04,1.07,1.8,1.6,2.27,1.6.26,0,.55-.2.86-.59.31-.39.6-.85.86-1.37.26-.52.48-1.06.67-1.6.18-.55.27-.98.27-1.29-.05-.47-.47-1.15-1.25-2.03-.78-.89-1.77-1.88-2.97-2.97-1.2-1.09-2.5-2.25-3.91-3.48-1.41-1.22-2.71-2.38-3.91-3.48-1.2-1.09-2.19-2.08-2.97-2.97-.78-.89-1.2-1.56-1.25-2.03-.05-.47.1-1.21.47-2.23.36-1.02.83-2.14,1.41-3.36.57-1.22,1.24-2.49,1.99-3.79.75-1.3,1.52-2.5,2.31-3.6.78-1.09,1.55-1.99,2.31-2.7.75-.7,1.42-1.06,1.99-1.06,1.15,0,2.51.31,4.1.94,1.59.62,3.11,1.39,4.57,2.31,1.46.91,2.71,1.86,3.75,2.85,1.04.99,1.59,1.88,1.64,2.66Z" fill="#1f1b25" stroke-width="0"/><path d="M91.71,26.86c-.21-.21-.65-.42-1.33-.62-.68-.21-1.15-.13-1.41.23-.16.21-.42.89-.78,2.03-.37,1.15-.74,2.61-1.13,4.38-.39,1.77-.73,3.81-1.02,6.1-.29,2.29-.43,4.67-.43,7.11,0,1.77.08,3.45.23,5.04.16,1.59.35,2.98.59,4.18.23,1.2.52,2.16.86,2.89.34.73.69,1.12,1.06,1.17.31,0,.69-.36,1.13-1.09.44-.73.89-1.58,1.33-2.54.44-.96.83-1.88,1.17-2.74.34-.86.59-1.42.74-1.68.42-.68.96-1.26,1.64-1.76.68-.5,1.25-.74,1.72-.74.26,0,.46.18.59.55.13.37.24.79.31,1.29s.12,1,.12,1.52v1.25c0,.57-.11,1.64-.31,3.21s-.51,3.15-.9,4.77c-.39,1.62-.83,3.05-1.33,4.3-.5,1.25-1.03,1.85-1.6,1.8-.57-.05-1.43-.31-2.58-.78-1.15-.47-2.31-1.02-3.48-1.64-1.17-.63-2.24-1.26-3.21-1.92-.96-.65-1.55-1.16-1.76-1.52-.21-.36-.52-1.26-.94-2.7-.42-1.43-.85-3.19-1.29-5.28-.44-2.08-.82-4.38-1.13-6.88-.31-2.5-.47-5-.47-7.51s.06-4.98.2-7.43c.13-2.45.35-4.64.67-6.57.31-1.93.72-3.49,1.21-4.69.49-1.2,1.11-1.82,1.84-1.88,2.03-.21,4.08-.04,6.14.51,2.06.55,3.91,1.28,5.55,2.19,1.64.91,2.98,1.88,4.03,2.89,1.04,1.02,1.59,1.86,1.64,2.54.05.73.01,1.75-.12,3.05-.13,1.3-.31,2.62-.55,3.95s-.5,2.53-.78,3.6c-.29,1.07-.54,1.68-.74,1.84-.47.47-1.02.96-1.64,1.49-.62.52-1.22.62-1.8.31-.21-.1-.39-.51-.55-1.21-.16-.7-.3-1.58-.43-2.62-.13-1.04-.25-2.16-.35-3.36-.1-1.2-.2-2.31-.27-3.32s-.16-1.88-.23-2.58c-.08-.7-.14-1.08-.2-1.13Z" fill="#1f1b25" stroke-width="0"/><path d="M125.3,28.5c.31.37.6.74.86,1.13.26.39.5.91.7,1.56.21.65.38,1.5.51,2.54.13,1.04.2,2.4.2,4.07,0,2.66-.07,5.33-.2,8.01-.13,2.68-.25,5.04-.35,7.08-.05,1.83-.11,3.52-.16,5.08-.05,1.56-.11,2.93-.16,4.1-.05,1.17-.12,2.1-.2,2.78-.08.68-.14,1.04-.2,1.09-.21.16-.54.09-.98-.2-.44-.29-.91-.66-1.41-1.13-.5-.47-.95-.96-1.37-1.49-.42-.52-.68-.94-.78-1.25,0-.26-.08-1.02-.23-2.27-1.25.73-2.63,1.24-4.14,1.53-1.51.29-3.01.39-4.5.31s-2.85-.35-4.1-.82-2.19-1.09-2.81-1.88c-.26-.31-.48-.78-.67-1.41-.18-.63-.34-1.34-.47-2.15-.13-.81-.25-1.67-.35-2.58-.11-.91-.18-1.76-.23-2.54-.11-2.03.16-3.79.78-5.28.63-1.49,1.77-2.59,3.44-3.32.73-.31,1.71-.48,2.93-.51,1.22-.03,2.45.03,3.67.16,1.22.13,2.33.29,3.32.47s1.62.33,1.88.43c-.21-2.66-.37-4.96-.47-6.92-.1-1.96-.31-3.22-.62-3.79-.26-.36-.57-.73-.94-1.09-.31-.26-.73-.55-1.25-.86-.52-.31-1.15-.55-1.88-.7-.57-.1-1.09.13-1.56.7-.42.52-.8,1.45-1.13,2.78-.34,1.33-.54,3.35-.59,6.06-1.83.05-3.22.04-4.18-.04-.96-.08-1.68-.17-2.15-.27-.57-.1-.91-.23-1.02-.39-.11-.21-.05-.98.16-2.31.21-1.33.51-2.78.9-4.34.39-1.56.86-3.05,1.41-4.46.55-1.41,1.13-2.29,1.76-2.66,1.25-.73,2.75-.99,4.5-.78,1.75.21,3.45.65,5.12,1.33,1.67.68,3.15,1.43,4.46,2.27,1.3.83,2.14,1.49,2.5,1.96ZM120.45,51.33c0-.26.03-.61.08-1.06.05-.44.08-.9.08-1.37s-.01-.91-.04-1.33c-.03-.42-.09-.73-.2-.94-.16-.31-.61-.57-1.37-.78-.76-.21-1.6-.35-2.54-.43-.94-.08-1.83-.1-2.66-.08-.83.03-1.41.14-1.72.35-.42.26-.72.62-.9,1.09-.18.47-.3,1.2-.35,2.19,0,.47.03.96.08,1.49.05.52.12,1.03.2,1.53s.18.93.31,1.29c.13.37.27.6.43.7.36.26,1,.48,1.92.67.91.18,1.84.23,2.78.16s1.8-.38,2.58-.9c.78-.52,1.22-1.38,1.33-2.58Z" fill="#1f1b25" stroke-width="0"/><path d="M153.26,21.85c.52.31,1.03.87,1.52,1.68.5.81.95,1.75,1.37,2.81.42,1.07.76,2.22,1.02,3.44s.39,2.38.39,3.48-.2,2.72-.59,4.73c-.39,2.01-.85,4.03-1.37,6.06-.52,2.03-1.02,3.86-1.49,5.47-.47,1.62-.78,2.58-.94,2.89-.31,1.2-.73,2.06-1.25,2.58-.52.42-1.21.72-2.07.9-.86.18-1.73.3-2.62.35-.89.05-1.75.04-2.58-.04-.83-.08-1.49-.2-1.96-.35-.05,0-.23-.05-.55-.16,0,2.09-.03,4.22-.08,6.41-.05,1.88-.11,3.98-.16,6.29-.05,2.32-.11,4.65-.16,7-.11.47-.3,1.02-.59,1.64-.29.62-.64,1.21-1.06,1.76-.42.55-.85,1-1.29,1.37-.44.36-.85.5-1.21.39-.21-.05-.43-.95-.66-2.7-.23-1.75-.47-4.04-.7-6.88s-.48-6.08-.74-9.73c-.26-3.65-.5-7.38-.7-11.18-.21-3.8-.38-7.54-.51-11.22-.13-3.67-.23-6.96-.31-9.85s-.09-5.26-.04-7.11c.05-1.85.18-2.85.39-3.01.16-.16.47-.14.94.04.47.18,1,.5,1.6.94.6.44,1.22.99,1.88,1.64.65.65,1.24,1.37,1.76,2.15,2.55-1.15,4.98-1.96,7.27-2.42,2.29-.47,4.12-.26,5.47.63ZM149.97,33.34c0-.83-.12-1.65-.35-2.46-.24-.81-.54-1.51-.9-2.11-.37-.6-.74-1.07-1.13-1.41-.39-.34-.74-.46-1.06-.35-1.3.31-2.4.68-3.28,1.09-.47.21-.86.44-1.17.7.1,1.67.17,3.95.2,6.84.03,2.89.04,6.06.04,9.5,0,1.51.05,2.53.16,3.05.05,1.25.36,2.11.94,2.58.16.16.39.33.7.51.31.18.65.34,1.02.47.36.13.73.21,1.09.24.36.03.68-.07.94-.27.05-.05.17-.53.35-1.45.18-.91.38-2.03.59-3.36.21-1.33.43-2.76.67-4.3.23-1.54.44-2.97.62-4.3s.33-2.46.43-3.4c.1-.94.16-1.46.16-1.56Z" fill="#1f1b25" stroke-width="0"/><path d="M185.83,48.28c-.05.1-.68.31-1.88.62-1.2.31-2.63.64-4.3.98-1.67.34-3.44.68-5.32,1.02-1.88.34-3.49.61-4.85.82.26,2.09.57,3.95.94,5.59.36,1.64.68,2.67.94,3.09.26.37.6.7,1.02,1.02.36.26.82.51,1.37.74.55.23,1.21.4,1.99.51.57.16,1.12-.05,1.64-.63.42-.52.79-1.43,1.13-2.74.34-1.3.51-3.36.51-6.18,1.62-.26,2.88-.42,3.79-.47.91-.05,1.58-.05,1.99,0,.52.05.83.13.94.23.05.16.05.55,0,1.17-.05.63-.17,1.4-.35,2.31-.18.91-.39,1.9-.62,2.97-.24,1.07-.51,2.08-.82,3.05-.31.97-.65,1.83-1.02,2.58-.37.76-.76,1.29-1.17,1.6-1.25.94-2.81,1.39-4.69,1.37-1.88-.03-3.73-.29-5.55-.78-1.83-.5-3.47-1.09-4.93-1.8-1.46-.7-2.37-1.29-2.74-1.76-.26-.31-.5-1.11-.7-2.38-.21-1.28-.38-2.83-.51-4.65-.13-1.82-.22-3.83-.27-6.02-.05-2.19-.01-4.33.12-6.41.13-2.08.34-4.01.62-5.79.29-1.77.69-3.21,1.21-4.3.78-1.56,2.06-2.84,3.83-3.83,1.77-.99,3.65-1.67,5.63-2.03,1.98-.36,3.87-.42,5.67-.16,1.8.26,3.14.83,4.03,1.72.52.52.99,1.55,1.41,3.09.42,1.54.68,3.4.78,5.59,0,.21.03.81.08,1.8s.09,2.05.12,3.17c.03,1.12.04,2.18.04,3.17s-.03,1.56-.08,1.72ZM168.86,47.03c.83-.31,1.78-.67,2.85-1.06,1.07-.39,2.1-.75,3.09-1.09.99-.34,1.88-.64,2.66-.9.78-.26,1.35-.47,1.72-.62-.05-.57-.12-1.24-.2-1.99-.08-.75-.17-1.49-.27-2.19-.11-.7-.23-1.32-.39-1.84-.16-.52-.31-.83-.47-.94-.42-.16-1.11-.3-2.07-.43-.96-.13-1.96-.09-2.97.12-1.02.21-1.94.6-2.78,1.17-.83.57-1.3,1.49-1.41,2.74-.1.83-.13,1.88-.08,3.13.05,1.25.16,2.55.31,3.91Z" fill="#1f1b25" stroke-width="0"/><path d="M37.18,84.36c.23.3.51,1.83.85,4.59.34,2.76.72,6.18,1.13,10.26.41,4.08.85,8.52,1.3,13.32.45,4.8.87,9.41,1.25,13.83.38,4.42.72,8.35,1.02,11.79.3,3.44.53,5.84.68,7.2.23,2.04.58,4.54,1.08,7.48.49,2.95.98,5.84,1.47,8.67.49,2.83.89,5.31,1.19,7.43.3,2.12.34,3.36.11,3.74-.23.38-.98.34-2.27-.11-1.29-.45-2.68-1.09-4.19-1.93-1.51-.83-2.93-1.74-4.25-2.72-1.32-.98-2.17-1.81-2.55-2.49-.38-.75-.79-2.02-1.25-3.8-.45-1.77-.95-4.14-1.47-7.08-.98,1.81-2.08,3.67-3.29,5.55-1.21,1.89-2.38,3.63-3.51,5.21s-2.17,2.89-3.12,3.91c-.95,1.02-1.64,1.49-2.1,1.42-.76-.07-1.91-1.08-3.46-3-1.55-1.93-3.12-4.12-4.7-6.58-1.59-2.46-3-4.8-4.25-7.03-1.25-2.23-1.95-3.72-2.1-4.48-.08-.45-.11-1.49-.11-3.12s.02-3.57.06-5.84c.04-2.27.11-4.74.23-7.43.11-2.68.23-5.33.34-7.94s.23-5.08.34-7.43c.11-2.34.25-4.27.4-5.78.15-2.34.36-4.78.62-7.31.26-2.53.53-4.89.79-7.09.26-2.19.53-4.06.79-5.61.26-1.55.51-2.51.74-2.89.15-.3.62-.49,1.42-.57.79-.07,1.68-.02,2.66.17.98.19,1.89.49,2.72.91.83.42,1.4.93,1.7,1.53.15.38.24,1.87.28,4.48.04,2.61.06,5.72.06,9.35s-.02,7.54-.06,11.73c-.04,4.19-.1,8.14-.17,11.85-.08,3.7-.13,6.86-.17,9.47-.04,2.61-.06,4.14-.06,4.59,0,.83.58,2.14,1.76,3.91,1.17,1.78,2.25,3.91,3.23,6.41l7.14-8.05c-.08-2.12-.13-4.84-.17-8.16-.04-3.33-.1-6.86-.17-10.6-.08-3.74-.13-7.52-.17-11.34-.04-3.82-.06-7.31-.06-10.49s.02-5.8.06-7.88c.04-2.08.09-3.27.17-3.57.23-.6.7-1.49,1.42-2.66.72-1.17,1.49-2.27,2.32-3.29.83-1.02,1.66-1.83,2.49-2.44.83-.6,1.43-.64,1.81-.11Z" fill="#1f1b25" stroke-width="0"/><path d="M100.51,104.54c1.43,1.21,2.49,3.61,3.17,7.2.68,3.59.94,7.58.79,11.96-.08,1.36-.27,3.23-.57,5.61-.3,2.38-.66,4.99-1.08,7.82-.42,2.83-.87,5.73-1.36,8.67-.49,2.95-.96,5.67-1.42,8.16-.45,2.49-.85,4.59-1.19,6.29-.34,1.7-.55,2.7-.62,3-.15.53-.57,1.06-1.25,1.59-.68.53-1.38.96-2.1,1.3-.72.34-1.42.57-2.1.68-.68.11-1.1-.02-1.25-.4-.08-.23-.08-1.4,0-3.51.07-2.12.19-4.74.34-7.88.15-3.14.32-6.5.51-10.09.19-3.59.36-6.97.51-10.15.15-3.17.3-5.88.45-8.11.15-2.23.23-3.57.23-4.02.08-2.34-.11-4.4-.57-6.18-.45-1.78-1.21-2.66-2.27-2.66-.38,0-.83.17-1.36.51-.53.34-1.04.74-1.53,1.19-.49.45-.95.95-1.36,1.47-.42.53-.62,1.02-.62,1.47-.08,1.36-.17,3.36-.28,6.01-.11,2.65-.23,5.56-.34,8.73s-.23,6.42-.34,9.75c-.11,3.33-.23,6.39-.34,9.18-.11,2.8-.21,5.12-.28,6.97-.08,1.85-.15,2.89-.23,3.12-.15.3-.62.51-1.42.62-.79.11-1.68.13-2.66.06-.98-.07-1.87-.26-2.66-.57-.79-.3-1.27-.72-1.42-1.25-.15-.38-.27-1.53-.34-3.46-.08-1.93-.17-4.25-.28-6.97s-.21-5.65-.28-8.79c-.08-3.14-.15-6.07-.23-8.79-.08-2.72-.13-5.06-.17-7.03-.04-1.96-.06-3.17-.06-3.63,0-1.81-.15-3.27-.45-4.37-.3-1.09-.66-1.96-1.08-2.61-.42-.64-.89-1.06-1.42-1.25-.53-.19-1.06-.28-1.59-.28-.23,0-.57.17-1.02.51-.45.34-.91.83-1.36,1.47-.45.64-.83,1.36-1.13,2.15-.3.79-.42,1.64-.34,2.55,0,.38.04,1.78.11,4.19.07,2.42.13,5.33.17,8.73.04,3.4.09,7.07.17,11,.07,3.93.13,7.58.17,10.94.04,3.36.06,6.2.06,8.5v3.68c-.15.38-.57.59-1.25.62-.68.04-1.44-.09-2.27-.4-.83-.3-1.63-.74-2.38-1.3-.76-.57-1.29-1.26-1.59-2.1-.15-.6-.38-1.93-.68-3.97-.3-2.04-.64-4.48-1.02-7.31-.38-2.83-.76-5.9-1.13-9.18-.38-3.29-.76-6.46-1.13-9.52-.38-3.06-.7-5.84-.96-8.33-.27-2.49-.47-4.38-.62-5.67-.23-1.81-.47-3.8-.74-5.95-.27-2.15-.49-4.23-.68-6.23-.19-2-.32-3.74-.4-5.21-.08-1.47,0-2.4.23-2.78.15-.3.7-.41,1.64-.34.94.08,1.96.28,3.06.62,1.09.34,2.15.79,3.17,1.36,1.02.57,1.68,1.15,1.98,1.76.23.45.47,1,.74,1.64.26.64.55,1.64.85,3,1.28-.98,2.61-1.91,3.97-2.78,1.36-.87,2.72-1.55,4.08-2.04,1.36-.49,2.66-.75,3.91-.79,1.25-.04,2.44.32,3.57,1.08.98.76,1.93,2.08,2.83,3.97,3.63-2.04,7.12-3.46,10.49-4.25,3.36-.79,6.03-.47,7.99.96Z" fill="#1f1b25" stroke-width="0"/><path d="M140.94,111.68c.75.45,1.53,1.27,2.32,2.44.79,1.17,1.51,2.55,2.15,4.14.64,1.59,1.15,3.27,1.53,5.04.38,1.78.57,3.46.57,5.04,0,1.13-.13,2.7-.4,4.71-.27,2-.62,4.19-1.08,6.58-.45,2.38-.95,4.84-1.47,7.37-.53,2.53-1.04,4.86-1.53,6.97-.49,2.12-.93,3.91-1.3,5.38-.38,1.47-.64,2.36-.79,2.66-.38.91-.7,1.68-.96,2.32-.27.64-.59,1.12-.96,1.42-.83.61-1.89,1.04-3.17,1.3-1.29.27-2.61.44-3.97.51-1.36.08-2.66.06-3.91-.06s-2.21-.28-2.89-.51c-.3-.07-.62-.17-.96-.28s-.7-.24-1.08-.4c-.76,1.29-1.63,2.44-2.61,3.46-.98,1.02-1.89,1.46-2.72,1.3-.3-.08-.62-1.32-.96-3.74-.34-2.42-.7-5.61-1.08-9.58-.38-3.97-.76-8.48-1.13-13.55-.38-5.06-.72-10.26-1.02-15.59-.3-5.33-.57-10.56-.79-15.7-.23-5.14-.4-9.73-.51-13.77-.11-4.04-.13-7.37-.06-9.98.07-2.61.26-4.03.57-4.25.3-.23,1-.06,2.1.51,1.09.57,2.29,1.4,3.57,2.49,1.28,1.1,2.47,2.4,3.57,3.91,1.09,1.51,1.83,3.06,2.21,4.65.23,1.21.4,3.29.51,6.24s.17,6.42.17,10.43c3.32-1.28,6.41-2.11,9.24-2.49,2.83-.38,5.12-.04,6.86,1.02ZM136.06,128.35c0-1.21-.19-2.4-.57-3.57-.38-1.17-.83-2.19-1.36-3.06-.53-.87-1.1-1.53-1.7-1.98-.61-.45-1.13-.6-1.59-.45-.83.15-1.63.36-2.38.62-.76.27-1.4.51-1.93.74-.68.3-1.25.57-1.7.79-.08,4.46-.17,9-.28,13.6-.11,4.61-.17,8.92-.17,12.92,0,1.97.04,3.68.11,5.16.07,1.47.11,2.4.11,2.78.23,1.81.72,3.1,1.47,3.85.23.15.58.36,1.08.62.49.27,1.02.49,1.59.68.57.19,1.11.3,1.64.34.53.04.98-.09,1.36-.4.07-.08.24-.92.51-2.55.26-1.62.55-3.61.85-5.95.3-2.34.62-4.89.96-7.65.34-2.76.66-5.33.96-7.71.3-2.38.55-4.4.74-6.07.19-1.66.28-2.57.28-2.72Z" fill="#1f1b25" stroke-width="0"/><path d="M180.57,109.87c.6.38,1.19,1.12,1.76,2.21.57,1.1,1.09,2.34,1.59,3.74.49,1.4.91,2.89,1.25,4.48s.64,3.06.91,4.42c.26,1.36.43,2.51.51,3.46.07.95.07,1.53,0,1.76-.15.3-.61.61-1.36.91-.68.3-1.7.64-3.06,1.02-1.36.38-3.25.79-5.67,1.25-.15-4.16-.45-7.31-.91-9.47-.45-2.15-.95-3.68-1.47-4.59-.61-1.06-1.25-1.59-1.93-1.59-.68.3-1.29.66-1.81,1.08-.53.42-.98.85-1.36,1.3-.45.53-.87,1.1-1.25,1.7-.15.23-.3.76-.45,1.59-.15.83-.3,2.08-.45,3.74,0,.53-.02,1.63-.06,3.29-.04,1.66-.08,3.59-.11,5.78-.04,2.19-.08,4.5-.11,6.92-.04,2.42-.08,4.67-.11,6.75-.04,2.08-.08,3.84-.11,5.27-.04,1.44-.1,2.27-.17,2.49-.15.38-.53.91-1.13,1.59-.61.68-1.29,1.3-2.04,1.87-.76.57-1.47,1.02-2.15,1.36-.68.34-1.13.32-1.36-.06-.23-.23-.45-1.21-.68-2.95-.23-1.74-.47-3.87-.74-6.41-.27-2.53-.55-5.31-.85-8.33-.3-3.02-.57-5.93-.79-8.73-.23-2.79-.42-5.31-.57-7.54-.15-2.23-.27-3.83-.34-4.82-.08-1.43-.15-3.02-.23-4.76-.08-1.74-.13-3.38-.17-4.93-.04-1.55-.04-2.91,0-4.08.04-1.17.17-1.87.4-2.1.15-.23.66-.28,1.53-.17.87.11,1.81.34,2.83.68,1.02.34,1.98.78,2.89,1.3.91.53,1.51,1.02,1.81,1.47.23.38.45.95.68,1.7,1.44-.75,2.82-1.45,4.14-2.1,1.32-.64,2.61-1.11,3.86-1.42,1.25-.3,2.47-.4,3.68-.28,1.21.11,2.42.51,3.63,1.19Z" fill="#1f1b25" stroke-width="0"/><path d="M223.04,112.02c.45.53.87,1.08,1.25,1.64.38.57.72,1.32,1.02,2.27.3.95.55,2.17.74,3.68.19,1.51.28,3.48.28,5.9,0,3.85-.1,7.73-.28,11.62-.19,3.89-.36,7.31-.51,10.26-.08,2.65-.15,5.1-.23,7.37-.08,2.27-.15,4.25-.23,5.95-.08,1.7-.17,3.04-.28,4.03-.11.98-.21,1.51-.28,1.59-.3.23-.78.13-1.42-.28-.64-.42-1.32-.96-2.04-1.64-.72-.68-1.38-1.4-1.98-2.15-.61-.75-.98-1.36-1.13-1.81,0-.38-.11-1.47-.34-3.29-1.81,1.06-3.82,1.8-6.01,2.21-2.19.42-4.36.57-6.52.45s-4.14-.51-5.95-1.19c-1.81-.68-3.17-1.59-4.08-2.72-.38-.45-.7-1.13-.96-2.04-.27-.91-.49-1.95-.68-3.12-.19-1.17-.36-2.42-.51-3.74-.15-1.32-.27-2.55-.34-3.68-.15-2.95.23-5.5,1.13-7.65s2.57-3.76,4.99-4.82c1.06-.45,2.47-.7,4.25-.74,1.78-.04,3.55.04,5.33.23,1.77.19,3.38.42,4.82.68,1.44.27,2.34.47,2.72.62-.3-3.85-.53-7.2-.68-10.03-.15-2.83-.45-4.67-.91-5.5-.38-.53-.83-1.06-1.36-1.59-.45-.38-1.06-.79-1.81-1.25-.76-.45-1.66-.79-2.72-1.02-.83-.15-1.59.19-2.27,1.02-.61.76-1.15,2.1-1.64,4.03-.49,1.93-.78,4.86-.85,8.79-2.65.08-4.67.06-6.07-.06-1.4-.11-2.44-.24-3.12-.4-.83-.15-1.32-.34-1.47-.57-.15-.3-.08-1.42.23-3.34.3-1.93.74-4.02,1.3-6.29.57-2.27,1.25-4.42,2.04-6.46.79-2.04,1.64-3.33,2.55-3.85,1.81-1.06,3.99-1.43,6.52-1.13,2.53.3,5.01.95,7.43,1.93,2.42.98,4.57,2.08,6.46,3.29,1.89,1.21,3.1,2.15,3.63,2.83ZM216.01,145.12c0-.38.04-.89.11-1.53.07-.64.11-1.3.11-1.98s-.02-1.32-.06-1.93c-.04-.6-.13-1.06-.28-1.36-.23-.45-.89-.83-1.98-1.13-1.1-.3-2.32-.51-3.68-.62s-2.65-.15-3.85-.11c-1.21.04-2.04.21-2.49.51-.61.38-1.04.91-1.3,1.59-.27.68-.44,1.74-.51,3.17,0,.68.04,1.4.11,2.15.07.76.17,1.49.28,2.21.11.72.26,1.34.45,1.87.19.53.4.87.62,1.02.53.38,1.45.7,2.78.96,1.32.27,2.66.34,4.02.23s2.61-.55,3.74-1.3c1.13-.75,1.78-2,1.93-3.74Z" fill="#1f1b25" stroke-width="0"/><path d="M64.12,195.48c.15.29.24,1.31.27,3.06.04,1.75.04,3.86,0,6.34-.04,2.48-.13,5.12-.27,7.92-.15,2.81-.33,5.45-.55,7.92-.15,1.39-.38,3.46-.71,6.23-.33,2.77-.71,5.83-1.15,9.18-.44,3.35-.89,6.8-1.37,10.33-.47,3.54-.93,6.78-1.37,9.73s-.82,5.41-1.15,7.38c-.33,1.97-.57,3.03-.71,3.17-.29.22-.76.75-1.42,1.58-.66.84-1.37,1.68-2.13,2.51-.76.84-1.48,1.51-2.13,2.02-.66.51-1.09.58-1.31.22-.15-.73-.22-2.99-.22-6.78,0-1.6.02-3.62.05-6.07.04-2.44.11-5.41.22-8.91.11-3.5.27-7.58.49-12.24.22-4.66.47-10.06.77-16.18-1.46,4.96-2.75,9.33-3.88,13.12-1.13,3.79-2.11,7.09-2.95,9.89-.84,2.81-1.55,5.17-2.13,7.11-.58,1.93-1.09,3.52-1.53,4.75-.95,2.92-1.57,4.63-1.86,5.14-.29.07-.75-.15-1.37-.66-.62-.51-1.31-1.26-2.08-2.24-.76-.98-1.53-2.17-2.29-3.55-.77-1.38-1.4-2.91-1.91-4.59-.51-1.53-1.17-3.57-1.97-6.12-.73-2.19-1.68-5.04-2.84-8.58-1.17-3.53-2.59-7.96-4.26-13.28.44,5.98.8,11.22,1.09,15.74.29,4.52.53,8.45.71,11.81.18,3.35.33,6.18.44,8.47.11,2.29.16,4.21.16,5.74.07,3.5-.04,5.5-.33,6.01-.73,0-1.51-.35-2.35-1.04-.84-.69-1.64-1.53-2.41-2.51-.77-.98-1.42-1.95-1.97-2.9-.55-.95-.86-1.64-.93-2.08-.07-.29-.29-1.64-.66-4.04-.37-2.4-.78-5.48-1.26-9.24-.47-3.75-.98-7.98-1.53-12.68-.55-4.7-1.06-9.49-1.53-14.37-.47-4.88-.86-9.64-1.15-14.26-.29-4.63-.44-8.76-.44-12.41,0-.58.73-1.37,2.19-2.35,1.46-.98,3.12-1.93,4.97-2.84,1.86-.91,3.59-1.71,5.19-2.4,1.6-.69,2.59-1.04,2.95-1.04.29,0,.6.84.93,2.51.33,1.68.71,3.79,1.15,6.34.44,2.55.91,5.39,1.42,8.53.51,3.13,1.09,6.12,1.75,8.96.51,2.92,1.13,5.94,1.86,9.07.58,2.7,1.26,5.67,2.02,8.91.76,3.24,1.62,6.39,2.57,9.46,1.02-4.44,1.95-8.47,2.79-12.08.84-3.61,1.58-6.68,2.24-9.24.8-2.99,1.49-5.65,2.08-7.98,1.31-5.68,2.6-10.17,3.88-13.45,1.27-3.28,2.09-5.21,2.46-5.79.22-.29,1-.36,2.35-.22,1.35.15,2.82.38,4.43.71,1.6.33,3.08.71,4.43,1.15,1.35.44,2.09.8,2.24,1.09Z" fill="#1f1b25" stroke-width="0"/><path d="M101.13,213.41c.44.51.84,1.04,1.2,1.58.36.55.69,1.28.98,2.19.29.91.53,2.1.71,3.55.18,1.46.27,3.35.27,5.68,0,3.72-.09,7.45-.27,11.2-.18,3.75-.35,7.05-.49,9.89-.07,2.55-.15,4.92-.22,7.11-.07,2.19-.15,4.1-.22,5.74-.07,1.64-.16,2.93-.27,3.88-.11.95-.2,1.46-.27,1.53-.29.22-.75.13-1.37-.27-.62-.4-1.28-.93-1.97-1.58-.69-.66-1.33-1.35-1.91-2.08-.58-.73-.95-1.31-1.09-1.75,0-.36-.11-1.42-.33-3.17-1.75,1.02-3.68,1.73-5.79,2.13-2.11.4-4.21.55-6.29.44s-3.99-.49-5.74-1.15c-1.75-.66-3.06-1.53-3.93-2.62-.37-.44-.67-1.09-.93-1.97-.26-.87-.47-1.88-.66-3.01-.18-1.13-.35-2.33-.49-3.61-.15-1.27-.26-2.46-.33-3.55-.15-2.84.22-5.3,1.09-7.38.87-2.08,2.48-3.62,4.81-4.65,1.02-.44,2.39-.67,4.1-.71,1.71-.04,3.42.04,5.14.22,1.71.18,3.26.4,4.65.66,1.38.26,2.26.46,2.62.6-.29-3.72-.51-6.94-.66-9.67-.15-2.73-.44-4.5-.87-5.3-.37-.51-.8-1.02-1.31-1.53-.44-.36-1.02-.76-1.75-1.2-.73-.44-1.6-.76-2.62-.98-.8-.15-1.53.18-2.19.98-.58.73-1.11,2.02-1.58,3.88-.47,1.86-.75,4.68-.82,8.47-2.55.07-4.5.05-5.85-.05-1.35-.11-2.35-.24-3.01-.38-.8-.15-1.28-.33-1.42-.55-.15-.29-.07-1.37.22-3.22.29-1.86.71-3.88,1.26-6.07.55-2.19,1.2-4.26,1.97-6.23.77-1.97,1.58-3.21,2.46-3.72,1.75-1.02,3.84-1.38,6.29-1.09,2.44.29,4.83.91,7.16,1.86,2.33.95,4.41,2.01,6.23,3.17,1.82,1.17,2.99,2.08,3.5,2.73ZM94.36,245.33c0-.36.04-.86.11-1.48.07-.62.11-1.26.11-1.91s-.02-1.27-.05-1.86c-.04-.58-.13-1.02-.27-1.31-.22-.44-.86-.8-1.91-1.09-1.06-.29-2.24-.49-3.55-.6-1.31-.11-2.55-.14-3.72-.11-1.17.04-1.97.2-2.4.49-.58.37-1,.88-1.26,1.53-.26.66-.42,1.68-.49,3.06,0,.66.04,1.35.11,2.08.07.73.16,1.44.27,2.13.11.69.25,1.29.44,1.8.18.51.38.84.6.98.51.37,1.4.67,2.68.93,1.27.26,2.57.33,3.88.22,1.31-.11,2.51-.53,3.61-1.26,1.09-.73,1.71-1.93,1.86-3.61Z" fill="#1f1b25" stroke-width="0"/><path d="M145.14,225.11c0,1.17-.13,2.84-.38,5.03-.26,2.19-.6,4.57-1.04,7.16-.44,2.59-.89,5.25-1.37,7.98-.48,2.73-.95,5.23-1.42,7.49-.48,2.26-.88,4.15-1.2,5.68-.33,1.53-.53,2.37-.6,2.51-.15.22-.53.35-1.15.38-.62.04-1.31-.02-2.08-.16-.77-.15-1.46-.36-2.08-.66-.62-.29-1-.66-1.15-1.09-.07-.29-.09-1.31-.05-3.06.04-1.75.11-3.84.22-6.29.11-2.44.24-5.06.38-7.87.15-2.8.31-5.43.49-7.87.18-2.44.33-4.54.44-6.29s.16-2.8.16-3.17c0-1.31-.13-2.57-.38-3.77-.26-1.2-.57-2.24-.93-3.12-.37-.87-.78-1.55-1.26-2.02-.47-.47-.89-.64-1.26-.49-.95.15-1.75.38-2.41.71-.66.33-1.2.67-1.64,1.04-.51.44-.91.95-1.2,1.53-.07.15-.2.58-.38,1.31-.18.73-.27,1.57-.27,2.51v3.12c0,1.79-.02,3.92-.05,6.39-.04,2.48-.07,5.16-.11,8.04-.04,2.88-.07,5.54-.11,7.98-.04,2.44-.09,4.54-.16,6.29-.07,1.75-.15,2.73-.22,2.95-.15.44-.51,1.04-1.09,1.8-.58.77-1.24,1.48-1.97,2.13-.73.66-1.42,1.15-2.08,1.48s-1.09.27-1.31-.16c-.22-.22-.44-1.29-.66-3.22-.22-1.93-.46-4.3-.71-7.11-.26-2.8-.53-5.87-.82-9.18-.29-3.32-.55-6.5-.77-9.56-.22-3.06-.4-5.83-.55-8.31-.15-2.48-.26-4.26-.33-5.36-.07-1.53-.15-3.26-.22-5.19-.07-1.93-.13-3.75-.16-5.47-.04-1.71-.04-3.21,0-4.48.04-1.27.16-2.06.38-2.35.15-.29.64-.36,1.48-.22.84.15,1.75.42,2.73.82.98.4,1.91.88,2.79,1.42.87.55,1.46,1.08,1.75,1.58.14.44.33.93.55,1.48.22.55.4,1.44.55,2.68,1.24-.73,2.59-1.4,4.04-2.02,1.46-.62,2.9-1.09,4.32-1.42s2.79-.44,4.1-.33c1.31.11,2.48.49,3.5,1.15.66.51,1.33,1.39,2.02,2.62.69,1.24,1.31,2.7,1.86,4.37.55,1.68.98,3.44,1.31,5.3s.49,3.63.49,5.3Z" fill="#1f1b25" stroke-width="0"/><path d="M178,211.11c.51.44,1,1.28,1.48,2.51.47,1.24.89,2.73,1.26,4.48.36,1.75.69,3.64.98,5.68.29,2.04.55,4.04.77,6.01s.38,3.81.49,5.52c.11,1.71.2,3.12.27,4.21.07,1.31.13,2.68.16,4.1.04,1.42.04,2.77,0,4.04-.04,1.28-.11,2.42-.22,3.44-.11,1.02-.27,1.79-.49,2.3-.44,1.09-1.19,1.84-2.24,2.24-1.06.4-2.24.67-3.55.82-.66.07-1.77.09-3.33.05-1.57-.04-3.24-.11-5.03-.22-1.79-.11-3.48-.24-5.08-.38-1.6-.15-2.81-.29-3.61-.44-1.6-.36-2.75-.84-3.44-1.42-.69-.58-1.37-1.42-2.02-2.51-.22-.44-.4-1.55-.55-3.33-.15-1.79-.24-3.94-.27-6.45-.04-2.51-.02-5.23.05-8.14.07-2.91.2-5.68.38-8.31.18-2.62.4-4.92.66-6.89.25-1.97.6-3.28,1.04-3.94.73-1.02,1.98-1.97,3.77-2.84,1.78-.88,3.41-1.57,4.86-2.08.73-.22,1.69-.38,2.9-.49s2.48-.11,3.83,0c1.35.11,2.64.33,3.88.66,1.24.33,2.26.78,3.06,1.37ZM171.88,245c.15-.29.31-1.18.49-2.68.18-1.49.33-3.3.44-5.41.11-2.11.18-4.37.22-6.78.04-2.41.05-4.63.05-6.67s-.07-3.77-.22-5.19c-.15-1.42-.33-2.24-.55-2.46-.37-.29-.89-.42-1.58-.38-.69.04-1.4.15-2.13.33-.73.18-1.38.4-1.97.66-.58.26-.98.49-1.2.71-.95.8-1.46,2.11-1.53,3.93,0,.51-.05,1.95-.16,4.32s-.16,4.92-.16,7.65.05,5.27.16,7.6c.11,2.33.34,3.75.71,4.26.36.51.89.89,1.58,1.15.69.26,1.42.38,2.19.38s1.49-.13,2.19-.38c.69-.25,1.18-.6,1.48-1.04Z" fill="#1f1b25" stroke-width="0"/><path d="M215.78,211.33c.58.37,1.15,1.08,1.69,2.13.55,1.06,1.06,2.26,1.53,3.61.47,1.35.88,2.79,1.2,4.32s.62,2.95.87,4.26c.25,1.31.42,2.42.49,3.33.07.91.07,1.48,0,1.69-.15.29-.58.58-1.31.88-.66.29-1.64.62-2.95.98-1.31.37-3.13.77-5.46,1.2-.15-4.01-.44-7.05-.88-9.13-.44-2.08-.91-3.55-1.42-4.43-.58-1.02-1.2-1.53-1.86-1.53-.66.29-1.24.64-1.75,1.04-.51.4-.95.82-1.31,1.26-.44.51-.84,1.06-1.2,1.64-.15.22-.29.73-.44,1.53-.15.8-.29,2.01-.44,3.61,0,.51-.02,1.57-.05,3.17-.04,1.6-.07,3.46-.11,5.58-.04,2.11-.07,4.34-.11,6.67-.04,2.33-.07,4.5-.11,6.5-.04,2-.07,3.7-.11,5.08-.04,1.38-.09,2.19-.16,2.4-.15.37-.51.88-1.09,1.53-.58.66-1.24,1.26-1.97,1.8-.73.55-1.42.98-2.08,1.31-.66.33-1.09.31-1.31-.05-.22-.22-.44-1.17-.66-2.84-.22-1.67-.46-3.73-.71-6.18-.26-2.44-.53-5.12-.82-8.03-.29-2.91-.55-5.72-.77-8.42-.22-2.7-.4-5.12-.55-7.27-.15-2.15-.26-3.7-.33-4.65-.07-1.38-.15-2.91-.22-4.59-.07-1.68-.13-3.26-.16-4.75-.04-1.49-.04-2.8,0-3.94.04-1.13.16-1.8.38-2.02.15-.22.64-.27,1.48-.16.84.11,1.75.33,2.73.66.98.33,1.91.75,2.79,1.26.87.51,1.46.98,1.75,1.42.22.37.44.91.66,1.64,1.38-.73,2.71-1.4,3.99-2.02,1.27-.62,2.51-1.07,3.72-1.37,1.2-.29,2.39-.38,3.55-.27,1.16.11,2.33.49,3.5,1.15Z" fill="#1f1b25" stroke-width="0"/></g></g></svg>