<svg xmlns="http://www.w3.org/2000/svg" viewBox="0 0 101.78 52.95"><defs><style>.cls-1{fill:#e0d08d;}.cls-2{fill:#1f1b25;}</style></defs><g id="Layer_2" data-name="Layer 2"><g id="Final_scene" data-name="Final scene"><g id="logo-teeth"><path class="cls-1" d="M57.43,6.38a1.54,1.54,0,0,0-1.37-.44c-2.36,0-4.74.32-7.09.32s-4.72,0-7.08-.06v5.29c0,1.79,2.45,3.8,3.61,4.89,1.4,1.32,3.4,3.41,5.36,3.85a3.39,3.39,0,0,0,2.55-.65,11.51,11.51,0,0,0,4.3-9.15c0-.94.06-1.88,0-2.83A2.1,2.1,0,0,0,57.43,6.38Z"/><path class="cls-1" d="M22.5,5.46a2.41,2.41,0,0,0-.33-.5,5.5,5.5,0,0,0-2.69-1.23c-1.06-.3-2.13-.56-3.21-.82-1.39-.33-2.71-.86-4.14-1.1C10,1.46,7.72,1.45,5.7.64A2.12,2.12,0,0,0,4.22.4c-.58.23-.76.94-1,1.51S2,3,2,3.67c0,.41.13.84.19,1.25.6,4.1,1.23,8.2,2.06,12.26a55.92,55.92,0,0,0,3.9,13.13,87.21,87.21,0,0,0,6.62,10.86c1.2,1.78,2.39,3.62,3.71,5.32A11.23,11.23,0,0,1,20.29,49a18,18,0,0,0,1.27,2.92,1.84,1.84,0,0,0,1.8,1c.12-1.94-.59-3.82-1-5.71a17.12,17.12,0,0,1-.46-4.56c.06-1.59-.26-3.23-.34-4.84l-.72-15.14c-.09-1.73-.17-3.46-.15-5.19a42.73,42.73,0,0,1,.56-6.28,13.93,13.93,0,0,1,.48-2.59c.32-.79,1-1.27,1-2.2A2.23,2.23,0,0,0,22.5,5.46Z"/><path class="cls-1" d="M39.67,6.38a1.49,1.49,0,0,0-1.28-.53l-2.2,0c-1.44,0-2.89,0-4.33.08-.56,0-6.58-.29-6.59-.23a59.16,59.16,0,0,0-.57,5.91,3.1,3.1,0,0,0,.63,1.56,15.65,15.65,0,0,0,1.58,2c.66.75,1.36,1.45,2.09,2.13a3.42,3.42,0,0,1,.53.47,3.68,3.68,0,0,1,.26.57,3.81,3.81,0,0,0,.79,1.08,3.5,3.5,0,0,0,.68.52,3.2,3.2,0,0,0,2.64.44,5.6,5.6,0,0,0,1.28-.88,18.35,18.35,0,0,0,2.67-3,20.09,20.09,0,0,0,1.58-2.42,12.82,12.82,0,0,0,.71-1.44,2.48,2.48,0,0,0,.12-.66,19.67,19.67,0,0,0-.14-4.27,3.19,3.19,0,0,0-.32-1.17A1.07,1.07,0,0,0,39.67,6.38Z"/><path class="cls-1" d="M80.12,27v1.46c0,1.63,0,3.26-.07,4.89-.09,1.45-.26,2.9-.31,4.36s0,2.71.11,4.06l.31,5.51a12,12,0,0,1-.33,4.52c.63.15,1.13-.51,1.43-1.08,1.93-3.58,3.65-7.45,5.9-10.82a81.72,81.72,0,0,0,5.76-9.59c2-4.14,3-8.81,3.84-13.29.59-3,1.08-6,1.53-9l.51-3.54c.06-.46.12-.91.19-1.37.14-.85-.38-1.23-1.24-1.42-1.77-.38-3.46.83-5.23,1.19A12.26,12.26,0,0,1,89.82,3a37.17,37.17,0,0,0-6.06.28A5.84,5.84,0,0,0,81.48,4a5.48,5.48,0,0,0-1.63,1.85,7.28,7.28,0,0,0-.69,1.4c-.48,1.43.1,3.54.22,5,.26,3.45.67,6.88.7,10.34Z"/><path class="cls-1" d="M59.86,5.51A2,2,0,0,0,59,6.76,4.23,4.23,0,0,0,59,8.63a13,13,0,0,0,1,2.9c.28.56.46,1.14.74,1.71a24.53,24.53,0,0,0,2.13,3.46A18.25,18.25,0,0,0,65,19.22c.43.42,1.08,1.08,1.74,1.08,1.25,0,2.57-1.28,3.4-2.07l3.72-3.6a8.1,8.1,0,0,0,1.58-1.88c.8-1.5.72-3.55.65-5.2,0-.92,0-1.89-1-2.33A4.3,4.3,0,0,0,73.25,5l-5.08.18c-2.4.08-4.82.07-7.22.11a3,3,0,0,0-.8.09A1.51,1.51,0,0,0,59.86,5.51Z"/><path class="cls-2" d="M56.29,6.57a1.76,1.76,0,0,0-.23-.37c-.51-.6-1.56-.31-2.25-.35A36.09,36.09,0,0,0,50.07,6c-2.63.13-5.26.11-7.89.15-1.13,0-.82.84-.82,1.76s0,1.78,0,2.67c0,2.34,7.93,9.34,9.91,9.34.77,0,1.52-.82,2-1.32a23.45,23.45,0,0,0,2.47-3.06c1-1.53,1-3.32.95-5.11a27.16,27.16,0,0,0-.23-3A3.57,3.57,0,0,0,56.29,6.57Z"/><path class="cls-2" d="M20.74,5.17l-.27-.09c-3.06-1-6.33-1-9.34-2.15S5.15-.36,1.92.05a2.41,2.41,0,0,0-1,.33C-.39,1.27.06,4.23.14,5.6a63.44,63.44,0,0,0,.77,7.9c1,5.73,2.2,11.74,4.74,17A94.41,94.41,0,0,0,13,42.59c2.72,4,5,8.18,9.6,10.2a6.65,6.65,0,0,0-.42-3.42,30,30,0,0,1-.66-3.77c-.84-6.21-1.48-12.35-2-18.58a78,78,0,0,1,.25-12.13c.1-1.53-.17-3.42.26-4.85.32-1.06,1.23-1.83,1.69-2.81C22.38,5.84,22,5.57,20.74,5.17Z"/><path class="cls-2" d="M38.48,6.35a2,2,0,0,0-.75-.25c-4-.61-8-.26-12.1-.57a.74.74,0,0,0-.51.09.64.64,0,0,0-.2.37,21.27,21.27,0,0,0-.4,5.8A3.71,3.71,0,0,0,24.73,13c.64,1.55,2.32,3,3.41,4.28S30.69,20,32.58,20s7-6.91,6.8-8.41S40,7.24,38.48,6.35Z"/><path class="cls-2" d="M81.57,27c-.32,3.61-.43,7.25-.53,10.87-.05,2-.05,4-.12,5.94s.33,4-.26,6.09A12,12,0,0,0,80.11,52a2.26,2.26,0,0,0,1.42-.59A23.74,23.74,0,0,0,85,47q1.92-2.7,3.78-5.45a87.93,87.93,0,0,0,6.66-11c.32-.65.6-1.32.86-2a78.25,78.25,0,0,0,3.62-14.22q.63-3.51,1.15-7c.24-1.6,1-3.41.57-5-.28-1-.82-.94-1.69-.84a14.45,14.45,0,0,0-3.79.73c-1.4.53-2.73,1.22-4.16,1.62-2.29.64-4.72.49-7.09.61-1.17.07-3.47.22-4.1,1.43s.08,3.12.18,4.35q.26,3.08.44,6.17A71.86,71.86,0,0,1,81.57,27Z"/><path class="cls-2" d="M60.55,5.83c-1.66,1.34-.59,4.71.06,6.29a17.19,17.19,0,0,0,4.57,6.39,3,3,0,0,0,1.33.77,3,3,0,0,0,2.32-.91c3.68-3,6.4-7.22,5.64-12.18a1.19,1.19,0,0,0-.16-.48,1.07,1.07,0,0,0-.53-.32c-1.64-.54-3.54-.18-5.24-.18-2,0-3.93-.06-5.89,0a4.43,4.43,0,0,0-1.8.37A2.23,2.23,0,0,0,60.55,5.83Z"/><path class="cls-1" d="M18,43.23a64.4,64.4,0,0,1-4.86-14.94,38.46,38.46,0,0,0-1.41-6.1C9.91,17.26,5.45,13,3,8.23c1,4.79,1.31,10,3.25,14.58a96.53,96.53,0,0,0,6.49,13.3A49.27,49.27,0,0,0,18,43.23Z"/><path class="cls-1" d="M84,44.23a89.46,89.46,0,0,0,5-15.7,54,54,0,0,1,1.63-6.43c1.83-5.17,5.6-9.42,7.88-14.41-1.17,5.07-1.88,10.58-3.78,15.42a125.26,125.26,0,0,1-6.12,13.83A55.54,55.54,0,0,1,84,44.23Z"/><path class="cls-1" d="M30.17,17.33a2.07,2.07,0,0,0,1.26.84,2.08,2.08,0,0,0,1.33-.52.72.72,0,0,0,.33-.38.71.71,0,0,0,0-.38,6.1,6.1,0,0,1,0-2.88,1,1,0,0,0,0-.68,1,1,0,0,0-.26-.27c-1.48-1.13-3.54-1.32-4.93-2.55-.21-.18-.48-.4-.74-.29s-.27.36-.29.59c-.14,1.21-.37,2.4.43,3.35S29.22,16.28,30.17,17.33Z"/><path class="cls-1" d="M49.15,16.73a2.22,2.22,0,0,0,1.52.81A2.21,2.21,0,0,0,52,16.73a12.28,12.28,0,0,0,2.13-2.64,4.12,4.12,0,0,0,.41-3.28.72.72,0,0,0-.21-.33.82.82,0,0,0-.31-.11L50.7,9.71a2.66,2.66,0,0,0-1.72,0c-1,.47-1.25,2-2.31,2.11s-1.55-1.08-2.47-1.35c.08,0,.57,1.68.68,1.88A6.88,6.88,0,0,0,46.16,14C47.12,15,48.18,15.8,49.15,16.73Z"/><path class="cls-1" d="M63.58,14.21A26.8,26.8,0,0,0,66,16.94a1.25,1.25,0,0,0,.56.38c.48.12.9-.32,1.2-.71a3.9,3.9,0,0,0,.75-1.33,3,3,0,0,0-.65-2.34c-.49-.67-1.11-1.25-1.55-2S65.5,9.4,64.72,9.16a2.52,2.52,0,0,0-1.06,0C61.13,9.39,62.7,13.07,63.58,14.21Z"/></g></g></g></svg>