<svg xmlns="http://www.w3.org/2000/svg" viewBox="0 0 56.23 114.41"><defs><style>.cls-1{fill:#1f1b25;}.cls-2{fill:#e0d08d;}</style></defs><g id="Layer_2" data-name="Layer 2"><g id="Final_scene" data-name="Final scene"><g id="logo-ear-l"><path class="cls-1" d="M53.58,89.37c2-1.1,3.16-2.77,2.23-6.7A174,174,0,0,0,40,40.84C32.56,26.94,22.83,15,13.32,2.57,10.58-1,7.24-1,5.84,3.68.34,22.15,1.9,41.87.75,61.11.35,67.87-.4,74.66.26,81.4S3.14,95,7.87,99.84c4,4.06,9.31,6.41,14.57,8.54s10.67,4.15,16.07,6l3.19-11.69c.82-3,1.68-6.09,3.56-8.57C47.46,91.24,51.12,90.76,53.58,89.37Z"/><path class="cls-2" d="M54.52,89.07a4.24,4.24,0,0,0,1.22-1.55c.79-1.64.48-3.13.07-4.85A174,174,0,0,0,40,40.84C32.56,26.94,22.83,15,13.32,2.57A9.81,9.81,0,0,0,11.91,1.1a3.77,3.77,0,0,0-1.47-1A4.47,4.47,0,0,0,8.85,0a3.33,3.33,0,0,0-.55.1A3.78,3.78,0,0,0,6.62,1.64c3.71.23,7.1,7,9.08,10,6,9.22,10.87,19.16,15.69,29.07a114.55,114.55,0,0,1,6.3,14.63,85.69,85.69,0,0,1,3.07,13.91c.64,4.25,1.12,8.53,1.74,12.79.31,2.12.65,4.25,1.06,6.35.2,1.06.42,2.11.67,3.15.12.54.31,1.08.4,1.63a3.33,3.33,0,0,0,.11,1c.28.49,1.85-1.15,2.25-1.38l1.93-1.16a9.27,9.27,0,0,1,1.2-.65c.66-.28,1.38-.41,2.06-.63A7.25,7.25,0,0,0,54.52,89.07Z"/></g></g></g></svg>