<?xml version="1.0" encoding="UTF-8"?><svg id="Background_1" xmlns="http://www.w3.org/2000/svg" width="998.46" height="108.76" viewBox="0 0 998.46 108.76"><g id="Stars"><circle cx="996.22" cy="31.24" r=".49" fill="#b2ac94" stroke-width="0"/><circle cx="963.63" cy="54.87" r="2.06" fill="#b2ac94" stroke-width="0"/><circle cx="933.74" cy="34.62" r=".94" fill="#b2ac94" stroke-width="0"/><circle cx="892.12" cy="59.81" r=".69" fill="#b2ac94" stroke-width="0"/><circle cx="883.93" cy="50.46" r="2.08" fill="#b2ac94" stroke-width="0"/><circle cx="858.85" cy="22.97" r="1.13" fill="#b2ac94" stroke-width="0"/><circle cx="830.18" cy="61.31" r="1.74" fill="#b2ac94" stroke-width="0"/><circle cx="809.21" cy="27.22" r="2.15" fill="#b2ac94" stroke-width="0"/><circle cx="768.94" cy="29.14" r="2.05" fill="#b2ac94" stroke-width="0"/><circle cx="737.27" cy="40.39" r=".75" fill="#b2ac94" stroke-width="0"/><circle cx="663.96" cy="46.48" r=".77" fill="#b2ac94" stroke-width="0"/><circle cx="601.95" cy="45.11" r=".64" fill="#b2ac94" stroke-width="0"/><circle cx="570.19" cy="23.77" r="1.51" fill="#b2ac94" stroke-width="0"/><circle cx="492.13" cy="24.02" r=".65" fill="#b2ac94" stroke-width="0"/><circle cx="465.16" cy="29.91" r="1.01" fill="#b2ac94" stroke-width="0"/><circle cx="443.08" cy="59.93" r="1.28" fill="#b2ac94" stroke-width="0"/><circle cx="372.59" cy="60.18" r=".69" fill="#b2ac94" stroke-width="0"/><circle cx="356.79" cy="53.19" r="2.16" fill="#b2ac94" stroke-width="0"/><circle cx="341.61" cy="1.69" r="1.69" fill="#b2ac94" stroke-width="0"/><circle cx="321.86" cy="2.92" r="1.24" fill="#b2ac94" stroke-width="0"/><circle cx="291.58" cy="49.05" r=".75" fill="#b2ac94" stroke-width="0"/><circle cx="243.98" cy="9.09" r=".53" fill="#b2ac94" stroke-width="0"/><circle cx="225.65" cy="37.09" r="1.5" fill="#b2ac94" stroke-width="0"/><circle cx="183.26" cy="52.25" r=".74" fill="#b2ac94" stroke-width="0"/><circle cx="154.03" cy="42.16" r="1.89" fill="#b2ac94" stroke-width="0"/><circle cx="142.67" cy="10.24" r="1.86" fill="#b2ac94" stroke-width="0"/><circle cx="107.95" cy="46.57" r=".45" fill="#b2ac94" stroke-width="0"/><circle cx="67.06" cy="32.47" r=".97" fill="#b2ac94" stroke-width="0"/><circle cx="33.38" cy="22.81" r="1.72" fill="#b2ac94" stroke-width="0"/><circle cx="1.49" cy="43.65" r="1.49" fill="#b2ac94" stroke-width="0"/><circle cx="17.29" cy="105.39" r=".98" fill="#b2ac94" opacity=".25" stroke-width="0"/><circle cx="46.18" cy="94.05" r="1.78" fill="#b2ac94" opacity=".25" stroke-width="0"/><circle cx="72.96" cy="103.91" r=".51" fill="#b2ac94" opacity=".25" stroke-width="0"/><circle cx="113.41" cy="88.81" r="1.69" fill="#b2ac94" opacity=".25" stroke-width="0"/><circle cx="136.71" cy="107.28" r="1.48" fill="#b2ac94" opacity=".25" stroke-width="0"/><circle cx="134.97" cy="35.36" r="2.12" fill="#b2ac94" opacity=".25" stroke-width="0"/><circle cx="144.98" cy="45.14" r="1.52" fill="#b2ac94" opacity=".25" stroke-width="0"/><circle cx="179.84" cy="65.18" r="1.04" fill="#b2ac94" opacity=".25" stroke-width="0"/><circle cx="201.38" cy="36.43" r=".79" fill="#b2ac94" opacity=".25" stroke-width="0"/><circle cx="218.64" cy="96.42" r="2" fill="#b2ac94" opacity=".25" stroke-width="0"/><circle cx="233.52" cy="76.54" r=".98" fill="#b2ac94" opacity=".25" stroke-width="0"/><circle cx="260.37" cy="92.02" r="1.7" fill="#b2ac94" opacity=".25" stroke-width="0"/><circle cx="293.46" cy="55.04" r="1.68" fill="#b2ac94" opacity=".25" stroke-width="0"/><circle cx="313.34" cy="76.88" r="1.8" fill="#b2ac94" opacity=".25" stroke-width="0"/><circle cx="347.03" cy="48.12" r="1.15" fill="#b2ac94" opacity=".25" stroke-width="0"/><circle cx="355.12" cy="91.26" r="2.22" fill="#b2ac94" opacity=".25" stroke-width="0"/><circle cx="393.92" cy="101.57" r=".72" fill="#b2ac94" opacity=".25" stroke-width="0"/><circle cx="416.41" cy="58.9" r="1.68" fill="#b2ac94" opacity=".25" stroke-width="0"/><circle cx="441.34" cy="73.52" r="1.44" fill="#b2ac94" opacity=".25" stroke-width="0"/><circle cx="479.84" cy="15.6" r="1.96" fill="#b2ac94" opacity=".25" stroke-width="0"/><circle cx="509.75" cy="21.07" r=".52" fill="#b2ac94" opacity=".25" stroke-width="0"/><circle cx="521.31" cy="91.76" r=".9" fill="#b2ac94" opacity=".25" stroke-width="0"/><circle cx="547.58" cy="73.13" r=".75" fill="#b2ac94" opacity=".25" stroke-width="0"/><circle cx="579.78" cy="51.15" r=".72" fill="#b2ac94" opacity=".25" stroke-width="0"/><circle cx="608.39" cy="78.64" r=".48" fill="#b2ac94" opacity=".25" stroke-width="0"/><circle cx="628.35" cy="27.77" r=".96" fill="#b2ac94" opacity=".25" stroke-width="0"/><circle cx="639.42" cy="15.52" r=".86" fill="#b2ac94" opacity=".25" stroke-width="0"/><circle cx="672.12" cy="45.84" r="1.18" fill="#b2ac94" opacity=".25" stroke-width="0"/><circle cx="696.75" cy="29.91" r=".72" fill="#b2ac94" opacity=".25" stroke-width="0"/><circle cx="730.92" cy="29.57" r="1.2" fill="#b2ac94" opacity=".25" stroke-width="0"/><circle cx="759.26" cy="89.38" r=".76" fill="#b2ac94" opacity=".25" stroke-width="0"/><circle cx="801.88" cy="54.48" r=".67" fill="#b2ac94" opacity=".25" stroke-width="0"/><circle cx="823.88" cy="48.53" r=".88" fill="#b2ac94" opacity=".25" stroke-width="0"/><circle cx="839.46" cy="21.6" r="1.78" fill="#b2ac94" opacity=".25" stroke-width="0"/><circle cx="848.27" cy="67.3" r="2.03" fill="#b2ac94" opacity=".25" stroke-width="0"/><circle cx="862.52" cy="83.04" r=".49" fill="#b2ac94" opacity=".25" stroke-width="0"/><circle cx="903.65" cy="25.44" r="1.26" fill="#b2ac94" opacity=".25" stroke-width="0"/><circle cx="931.33" cy="34.18" r=".97" fill="#b2ac94" opacity=".25" stroke-width="0"/><circle cx="952.03" cy="97.37" r=".97" fill="#b2ac94" opacity=".25" stroke-width="0"/><circle cx="983.14" cy="51.01" r="1.4" fill="#b2ac94" opacity=".25" stroke-width="0"/><circle cx="996.32" cy="105.08" r="2.14" fill="#b2ac94" opacity=".25" stroke-width="0"/></g></svg>