<?xml version="1.0" encoding="UTF-8"?><svg id="Background_-_trees_1" xmlns="http://www.w3.org/2000/svg" width="1023.71" height="550.82" xmlns:xlink="http://www.w3.org/1999/xlink" viewBox="0 0 1023.71 550.82"><defs><linearGradient id="linear-gradient" x1="12.34" y1="538.82" x2="12.34" y2="266.84" gradientUnits="userSpaceOnUse"><stop offset=".02" stop-color="#393347"/><stop offset=".31" stop-color="#232028"/></linearGradient><linearGradient id="linear-gradient-2" x1="90.37" y1="445.44" x2="90.37" y2="18.45" gradientUnits="userSpaceOnUse"><stop offset="0" stop-color="#1b2e3d"/><stop offset="0" stop-color="#1a2d3c"/><stop offset=".22" stop-color="#19282f"/><stop offset=".49" stop-color="#192427"/><stop offset="1" stop-color="#192425"/></linearGradient><linearGradient id="linear-gradient-3" x1="1011.52" y1="538.82" x2="1011.52" y2="271.96" xlink:href="#linear-gradient"/><linearGradient id="linear-gradient-4" x1="948.87" y1="452.2" x2="948.87" y2="30.82" xlink:href="#linear-gradient-2"/><linearGradient id="linear-gradient-5" x1="211.06" y1="549.82" x2="211.06" y2="372.43" gradientUnits="userSpaceOnUse"><stop offset=".12" stop-color="#393347"/><stop offset=".63" stop-color="#232028"/></linearGradient><linearGradient id="linear-gradient-6" x1="217.5" y1="437.06" x2="217.5" y2="44.61" gradientUnits="userSpaceOnUse"><stop offset="0" stop-color="#1b2e3d"/><stop offset=".03" stop-color="#1a2c39"/><stop offset=".19" stop-color="#19272d"/><stop offset=".4" stop-color="#192426"/><stop offset="1" stop-color="#192425"/></linearGradient><linearGradient id="linear-gradient-7" x1="419.92" y1="546.89" x2="419.92" y2="371.92" gradientUnits="userSpaceOnUse"><stop offset=".13" stop-color="#393347"/><stop offset=".41" stop-color="#232028"/></linearGradient><linearGradient id="linear-gradient-8" x1="430.07" y1="483.82" x2="430.07" y2="11.06" gradientUnits="userSpaceOnUse"><stop offset="0" stop-color="#1b2e3d"/><stop offset=".57" stop-color="#19262b"/><stop offset="1" stop-color="#192425"/></linearGradient><linearGradient id="linear-gradient-9" x1="601.69" y1="549.52" x2="601.69" y2="373.92" gradientUnits="userSpaceOnUse"><stop offset=".09" stop-color="#393347"/><stop offset=".42" stop-color="#232028"/></linearGradient><linearGradient id="linear-gradient-10" x1="634.58" y1="472.62" x2="634.58" y2="1.71" gradientUnits="userSpaceOnUse"><stop offset="0" stop-color="#1b2e3d"/><stop offset=".03" stop-color="#1a2c39"/><stop offset=".19" stop-color="#19272d"/><stop offset=".4" stop-color="#192426"/><stop offset="1" stop-color="#192425"/></linearGradient><linearGradient id="linear-gradient-11" x1="805.92" y1="546.89" x2="805.92" y2="371.92" gradientUnits="userSpaceOnUse"><stop offset=".1" stop-color="#393347"/><stop offset=".38" stop-color="#232028"/></linearGradient><linearGradient id="linear-gradient-12" x1="719.94" y1="450.54" x2="933.18" y2="81.2" gradientUnits="userSpaceOnUse"><stop offset="0" stop-color="#1b2e3d"/><stop offset=".56" stop-color="#19272c"/><stop offset="1" stop-color="#192425"/></linearGradient></defs><g id="trees-foreground"><g id="tree1-l"><path d="M-.15,538.82c7.93,0,15.84,0,23.47,0,4.28-20.81-1.84-42.16-3.22-63.36-1.1-16.99.87-34.01,1.82-51.02.92-16.36.88-32.76.85-49.15-.07-35.92-.14-71.84-.21-107.76-7.97-1.75-16-.09-22.72,4.43" fill="url(#linear-gradient)" stroke="#161616" stroke-miterlimit="10" stroke-width="2"/><path d="M-.15,436.46c7.28-8.27,13.69-17.31,19.07-26.92,2.86,12.93,8.45,25.24,16.29,35.91-.07-3.1-.15-6.21-.22-9.31,7.56,4.1,15.96,6.65,24.53,7.46.67-13.85,3.4-27.6,8.08-40.66,13.11,2.9,26.22,5.79,39.33,8.69.31-3.81.62-7.63.93-11.44,11.6-.89,23.14-2.63,34.49-5.2-3.57-1.74-7.15-3.47-10.72-5.21,16.42-4.43,32.84-8.86,49.26-13.29-23.87-24.32-42.28-53.98-53.48-86.17,2.41,1.06,4.82,2.11,7.23,3.17-5.7-18.65-11.39-37.29-17.09-55.94,2.23.41,4.47.82,6.7,1.23-8.3-38.23-21.11-75.49-38.08-110.74,5.65,1.93,11.73,2.58,17.66,1.89-29.86-15.46-51.37-46.06-55.82-79.39-3.22,2.98-7.24,5.09-11.52,6.04-8.05-12.4-15.6-25.12-22.63-38.13-4.79,2.3-6.71,3.34-9.24,8.01-1.52,2.81-3.11,5.58-4.76,8.31" fill="url(#linear-gradient-2)" stroke="#161616" stroke-miterlimit="10" stroke-width="2"/></g><g id="tree1-r"><path d="M1023.85,271.96c-.42.28-.84.58-1.25.89-10.84,37.59-5.72,77.72-8.94,116.71-2.88,34.91-12.49,69.23-12.28,104.26.09,15.08,1.97,30.5-2.19,45,8.01,0,16.34,0,24.67,0" fill="url(#linear-gradient-3)" stroke="#161616" stroke-miterlimit="10" stroke-width="2"/><path d="M1023.85,436.46c-4.91,5.58-10.23,10.81-15.89,15.63-3.71-10.06-6.81-20.34-9.27-30.77-7.87,11.32-17.07,21.71-27.35,30.89-2.04-4.46-4.94-8.53-8.49-11.91-5.52,1.99-11.03,3.97-16.55,5.96,3.48-9.54,5.11-19.77,4.75-29.92-23.01,15.1-51.82,22.74-79.18,19.72,17-16.13,31.15-35.25,41.62-56.21-11.59,4.44-23.82,7.21-36.19,8.2,3.89-29.08,7.79-58.15,11.68-87.23-3.89,1.09-7.79,2.17-11.68,3.26,7.97-38.81,19.82-76.82,35.32-113.28-9.33.46-18.7.09-27.97-1.1,11.61-15.81,23.22-31.61,34.83-47.42-5.1,1.7-11.12.11-14.73-3.87,18.62-5.98,37.61-12.15,53.3-23.82,12.06-8.97,21.62-20.8,31.05-32.5,12.29-15.24,24.63-30.57,34.74-47.3l2-3.95" fill="url(#linear-gradient-4)" stroke="#161616" stroke-miterlimit="10" stroke-width="2"/></g><g id="tree2"><path d="M229.33,549.59c1.11-.03,2.21-.05,3.31-.08,1.33-.04,2.76-.1,3.84-.93,1.47-1.12,1.84-3.24,1.98-5.15.99-13.36-3.56-26.15-6.6-38.88s-2.89-24.72-2-37.73c2.08-30.12,2.16-60.4.22-90.53-.06-.97-.15-2-.73-2.75-.88-1.14-2.48-1.15-3.86-1.07-9.91.58-19.82,1.16-29.72,1.74-1.97,10.27-3.95,20.55-5.92,30.82-1.44,7.51-2.89,15.03-3.93,22.61-2.92,21.25-2.56,42.72-2.13,64.12.39,19.26-.22,38.53,1.65,57.73,14.62.41,29.25.45,43.87.11Z" fill="url(#linear-gradient-5)" stroke="#161616" stroke-miterlimit="10" stroke-width="2"/><path d="M205,73.79c-15.38,13.4-30.77,26.8-46.98,39.19-17.5,13.37-35.93,25.52-55.11,36.34,8.16,1.34,16.55,1.21,24.66-.38-5.09,8.19-12.71,14.79-21.54,18.67,5.27,1.12,10.67,1.57,16.05,1.35-11.12,19.72-22.24,39.43-33.35,59.15,10.03-1.81,20.07-3.61,30.1-5.42-5.72,14.74-13.16,28.81-22.13,41.84,5.5-.18,11-.35,16.5-.53-6.72,20.64-15.89,40.49-27.25,58.99,9.61,1.19,19.56-.54,28.21-4.89-4.72,15.63-12.84,30.22-23.65,42.46,6.42,1.13,13,1.27,19.46.42.51-.07-2.88,18.06-3.47,19.75-2,5.69-5.31,11.13-8.58,16.17-6.99,10.78-15.8,20.38-25.99,28.21-.4.31-.83.86-.5,1.24.13.15.34.2.53.24,15.41,3.3,31.79,1.88,46.4-4.03,1.63-.66,3.27-1.38,5.03-1.49.01.85-1.22,12.25-1,12.24,8.87-.46,17.69-2.08,26.15-4.81,6.02-1.94,12.07-4.6,16.2-9.39,2.86-3.32,3.38-4.98,8.09-6.02,4.35,7.29,3.26,16.99,8.07,23.98,1.31-2.09,3.77-3.08,6.01-4.14,9.42-4.46,17.16-12.35,21.43-21.85-.48,1.08,4.79,7.25,5.48,8.47,2.07,3.65,3.58,7.73,5.38,11.52,7.47-6.02,14.95-12.04,22.42-18.05,5.09,5.68,11.65,10.04,18.86,12.55-1.85-8.43-3.69-16.87-5.54-25.3,8.4,1.07,17.01,4.6,25.28,5.2-.15-2.88-.91-5.78-1.07-8.7-.05-.91-.07-1.87.36-2.67.69-1.29,2.37-1.79,3.81-1.54,3.91.68,8.33,3.35,12.14,4.67,5.18,1.8,10.43,3.42,15.72,4.86-2.28-4.11-3.6-8.75-3.83-13.45,9.67,3.96,20.04,6.17,30.48,6.51-.01-10.62,1.01-21.24,3.04-31.67,7.27,2.66,15.04,3.95,22.79,3.77-15.72-10.17-28.31-25.12-35.65-42.35,4.66.71,9.32,1.41,13.99,2.12-7.37-16.91-13.63-34.3-18.74-52.02,4.39,5.15,10.62,8.69,17.3,9.81-5.16-17.24-27.2-26.23-29.83-44.04,6.79,3.47,14.25,5.63,21.84,6.31-6.47-13.1-12.95-26.19-19.42-39.29,4.08.29,8.16.58,12.24.87-12.53-17.66-21.57-37.79-26.43-58.9,2.83,1.31,5.99,1.94,9.11,1.8-4.94-12.02-9.87-24.04-14.81-36.05-4.99-12.14-10-24.33-16.71-35.6-6.19-10.4-18.94-31.63-31.51-35-11.61-3.11-31.75,21.69-40.03,28.91Z" fill="url(#linear-gradient-6)" stroke="#161616" stroke-miterlimit="10" stroke-width="2"/></g><g id="tree3"><path d="M433.4,546.77c1.46-.08,2.33-.19,2.35-.36,5.76-55.95,7.54-112.96,5.3-169.57-.06-1.42-16.67-4.36-18.46-4.71-4.57-.9-8.93,1.26-13.34,2.83-6.39,2.27-5.89,1.97-6.37,12.37-.81,17.46-1.66,34.91-2.32,52.39-1.35,35.49-2.25,71.03-2.71,106.59,2.76.14,27.71.88,35.55.47Z" fill="url(#linear-gradient-7)" stroke="#161616" stroke-miterlimit="10" stroke-width="2"/><path d="M320.92,112.33c12.73-16.97,28.35-30.77,43.86-44.45,20.18-17.8,40.36-35.6,60.54-53.4,1.57-1.38,3.21-2.81,5.15-3.26,4.27-1,8.12,2.87,11.13,6.45,30.07,35.82,57.47,74.54,81.8,115.6-5.8.33-11.59.66-17.39.99,12.78,29.76,30.24,56.93,51.29,79.84-9.26,1.59-18.51,3.19-27.77,4.78,5.9,9.56,12.52,18.11,19.46,26.62,6.58,8.07,12,16.08,19.74,23.11,8.18,7.44,16.6,15.02,26.55,18.77-1.12-.42-7.53,4.48-8.91,5.17-3.33,1.66-6.76,3.09-10.25,4.26-6.12,2.06-10.37,5.49-16.07,8.76,5.69,4.02,11.38,8.05,17.07,12.07-8.81,1.83-17.62,3.66-26.43,5.5,8.51,14.83,18.58,28.51,29.92,40.66-12.38,2.91-25.66.64-36.74-6.28,6.12,14.29,13.47,27.91,21.92,40.58-13.11.75-26.37-2.25-38.23-8.64,9.1,20.3,20.21,39.44,33.07,56.93-15.19,6.55-32.46,6.63-47.7.22,1.38,10.24,2.76,20.48,4.13,30.73-19.94-.63-39.33-12.76-50.46-31.56-3.56,8.8-8.45,16.9-14.4,23.84-5-10.86-10.01-21.71-15.01-32.57-7.38,16.37-15.97,32.04-25.66,46.78-2.86-16.84-5.02-32.09-5.15-49.25-9.79,8.02-20.02,15.35-30.62,21.94,2.42-11.71,4.83-23.41,7.25-35.12-17.7,4.72-35.4,9.43-53.1,14.15,4.75-8.94,9.49-17.89,14.24-26.83-22.51-.74-45.08.66-67.39,4.2,11.71-8.68,23.01-18.05,33.85-28.07-2.41,2.24-18.3-5.62-21.46-6.84-6.86-2.65-13.9-2.22-21.16-2.44-1.11-.03-2.44-.21-2.95-1.33-.75-1.62.89-3.29,2.3-4.19,14.84-9.42,29.63-18.7,42.36-31.69-8.19.28-16.43-1.73-23.8-5.79,5.49-10.9,14.65-18.65,22.42-27.58,8.44-9.71,15.4-21.08,20.46-33.45-11.23,4.92-23.15,7.81-35.17,8.55,15.22-20.37,28.23-42.86,38.65-66.8-7.82,5.31-18.19,5.39-26.07.2,15.49-11.15,29.03-25.76,39.65-42.74-11.23-.1-22.45-1.17-33.54-3.18,8.74-9.68,16.49-20.51,23.05-32.2-7.67,3.11-15.82,4.7-23.96,4.7,7.44-9,14.87-17.99,22.31-26.99-3.77.42-9.02-1.13-12.79-.71Z" fill="url(#linear-gradient-8)" stroke="#161616" stroke-miterlimit="10" stroke-width="2"/></g><g id="tree4"><path d="M611.44,549c5.43-.91,10.14-3.23,12.67-8.45,1.94-4,2.03-8.6,2.09-13.05.13-11.4.22-22.81.25-34.21.08-23.98-.08-48.04-2.75-71.9-1.31-11.69-3.22-23.33-6.01-34.77-1.31-5.37-.97-8.65-6.25-10.33-3.47-1.1-7.28-1.47-10.85-2.17-4.57-.9-8.93,1.26-13.34,2.83-6.24,2.22-5.05,7.48-5.24,13.58-.22,7.13.13,14.26.71,21.36,1.14,13.94,3.22,27.8,3.9,41.77,1.26,25.9-2.33,51.72-6.79,77.16-.55,3.14-4.48,15.27-2.23,17.35,1.55,1.42,8.9.44,10.93.49,6.42.15,15.36,1.59,22.91.33Z" fill="url(#linear-gradient-9)" stroke="#161616" stroke-miterlimit="10" stroke-width="2"/><path d="M504.73,124.53c2.8.15,18.29-20.89,21.86-23.65,8.07-6.23,17.81-10.22,26.08-16.33-2.47,1.83-5.83,2.02-8.95,2.14-4.43.16-8.87.32-13.3.48,4.38-.16,11.46-11.91,15.35-14.77,10.05-7.39,26.76-9.59,34.08-20.21-3.77-.85-7.43-2.14-10.88-3.84,6.48-2.96,12.35-7.12,17.2-12.17,3.43-3.57,6.33-7.57,9.22-11.55,5.55-7.64,10.19-14.36,13.95-22.93,10.49,10.05,22.49,17.54,32.28,28.28,5.42,5.94,10.71,11.98,15.88,18.11,2.22,2.64,11.12,17.1,14.15,17.42-2.46-.26-5,.26-7.12,1.47,11.11,18.61,24.46,36.01,39.71,51.76-4.72-.21-9.44-.43-14.17-.64.83,6.75,3.98,13.22,8.85,18.19-4.49-1.22-8.97-2.44-13.46-3.65,5.39,13.94,15.66,26.13,28.8,34.16-6.64-.22-13.27-.45-19.91-.67,14.43,19.84,28.83,42.01,49.61,55.96-8.19,5.14-18.75,6.28-27.85,3.01,1.31.48,2.6,5.83,3.49,7.09,1.37,1.93,3.42,3.52,4.94,5.37,10.92,13.27,17.95,29.58,27.75,43.73-9.59,3.81-19.86,5.88-30.18,6.09-1.88,2.28.16,5.63,2.2,7.77,7.88,8.25,16.83,15.48,26.54,21.47-6.72,6.99-15.62,8.86-24.28,12.43,5.15,8.67,14.22,14.29,23.54,18.14,9.32,3.85,19.2,6.27,28.38,10.44-.12,4.56-5.22,7.13-9.61,8.37-6.7,1.89-13.6,3.08-20.54,3.54,2.97,7.83,13.62,14.95,20.14,19.66,10.9,7.87,22.9,14.06,34.85,20.22-.47,1.61-2.52,2.02-4.19,2.13-11.54.74-23.12.7-34.65-.11-3.59-.25-31.25.62-31.82-.81,4.01,10,12.74,17.98,23.06,21.09-8.41,1.61-17.09,1.8-25.58.61-4.24-.59-8.44-1.53-12.52-2.81-2.67-.83-6.4-3.26-9.3-2.47-2.82.76-3.48,4.44-3.31,7.35.49,8.32,3.36,16.49,8.19,23.28-10.48-.27-20.9-2.46-30.6-6.43-.8-.33-1.74-.67-2.5-.26-.82.44-1.02,1.49-1.12,2.42-.65,6.43-.13,12.97,1.52,19.21-14.21-2.69-27.63-9.49-38.21-19.35-2.78-2.59-5.47-5.46-8.99-6.91-12.42-5.1-15.32,14.93-16.11,23.14-8.33-7.88-16.47-15.97-24.4-24.24-8.47,9.07-18.63,18.88-31.03,18.24,2.09-7.73,2.68-15.86,1.71-23.81-20.06,4-40.74,4.84-61.06,2.5-2.68-.31-5.48-.72-7.66-2.32,10.74-11.11,27.05-16.33,35.76-29.09-10.13-.12-20.24-.31-30.36-.77,3.97-6.42,7.47-13.1,10.45-19.99-13.34,2.49-27.67,4.9-40.12-.29,14.69-8.85,27.25-20.87,36.48-34.89,1.3-1.97,2.57-4.13,2.49-6.46-13.06-.06-25.56,3.87-38.37,5.61-2,.27-4.7.09-5.15-1.78-.36-1.49,1.1-2.76,2.38-3.69,14.07-10.2,25.06-24.22,31.32-39.96-7.21,2.11-14.85,2.9-22.37,2.31-.71-.06-1.48-.15-2-.61-1.29-1.13-.08-3.14,1.21-4.29,3.81-3.39,8.24-6.06,12.44-8.99,12.85-8.99,24.02-21.41,26.87-36.33-10.95-1.59-20.96-1.85-31.99-2.09-1.12-.02-2.58-.35-2.66-1.41-.08-1.15,18.59-8.42,20.96-10.29,5.81-4.59,10.29-11.07,12.98-17.74-11.22-.06-22.59,1.01-33.74-.31,9.41-8.02,18.07-16.81,26.71-25.58,6.34-6.44,12.72-12.92,17.73-20.34-6.79,1.78-13.75,3-20.76,3.62,5.11-7.85,9.72-15.99,13.8-24.38-6.57,2.15-13.59,3.01-20.51,2.53,5.41-6.02,10.83-12.05,16.24-18.07,1.86-2.07,3.73-4.15,5.28-6.45-5.63,1.43-11.66,1.38-17.27-.13,6.21-3.29,12.27-6.85,18.15-10.65,1.97-1.28,3.99-2.65,5.19-4.61-7.03-.03-14.11.2-21.13-.19Z" fill="url(#linear-gradient-10)" stroke="#161616" stroke-miterlimit="10" stroke-width="2"/></g><g id="tree5"><path d="M819.4,546.77c1.46-.08,2.33-.19,2.35-.36,5.76-55.95,7.54-112.96,5.3-169.57-.06-1.42-16.67-4.36-18.46-4.71-4.57-.9-8.93,1.26-13.34,2.83-6.39,2.27-5.89,1.97-6.37,12.37-.81,17.46-1.66,34.91-2.32,52.39-1.35,35.49-2.25,71.03-2.71,106.59,2.76.14,27.71.88,35.55.47Z" fill="url(#linear-gradient-11)" stroke="#161616" stroke-miterlimit="10" stroke-width="2"/><path id="tree" d="M698.92,112.33c12.73-16.97,28.35-30.77,43.86-44.45,20.18-17.8,40.36-35.6,60.54-53.4,1.57-1.38,3.21-2.81,5.15-3.26,4.27-1,8.12,2.87,11.13,6.45,30.07,35.82,57.47,74.54,81.8,115.6-5.8.33-11.59.66-17.39.99,12.78,29.76,30.24,56.93,51.29,79.84-9.26,1.59-18.51,3.19-27.77,4.78,5.9,9.56,12.52,18.11,19.46,26.62,6.58,8.07,12,16.08,19.74,23.11,8.18,7.44,16.6,15.02,26.55,18.77-1.12-.42-7.53,4.48-8.91,5.17-3.33,1.66-6.76,3.09-10.25,4.26-6.12,2.06-10.37,5.49-16.07,8.76,5.69,4.02,11.38,8.05,17.07,12.07-8.81,1.83-17.62,3.66-26.43,5.5,8.51,14.83,18.58,28.51,29.92,40.66-12.38,2.91-25.66.64-36.74-6.28,6.12,14.29,13.47,27.91,21.92,40.58-13.11.75-26.37-2.25-38.23-8.64,9.1,20.3,20.21,39.44,33.07,56.93-15.19,6.55-32.46,6.63-47.7.22,1.38,10.24,2.76,20.48,4.13,30.73-19.94-.63-39.33-12.76-50.46-31.56-3.56,8.8-8.45,16.9-14.4,23.84-5-10.86-10.01-21.71-15.01-32.57-7.38,16.37-15.97,32.04-25.66,46.78-2.86-16.84-5.02-32.09-5.15-49.25-9.79,8.02-20.02,15.35-30.62,21.94,2.42-11.71,4.83-23.41,7.25-35.12-17.7,4.72-35.4,9.43-53.1,14.15,4.75-8.94,9.49-17.89,14.24-26.83-22.51-.74-45.08.66-67.39,4.2,11.71-8.68,23.01-18.05,33.85-28.07-2.41,2.24-18.3-5.62-21.46-6.84-6.86-2.65-13.9-2.22-21.16-2.44-1.11-.03-2.44-.21-2.95-1.33-.75-1.62.89-3.29,2.3-4.19,14.84-9.42,29.63-18.7,42.36-31.69-8.19.28-16.43-1.73-23.8-5.79,5.49-10.9,14.65-18.65,22.42-27.58,8.44-9.71,15.4-21.08,20.46-33.45-11.23,4.92-23.15,7.81-35.17,8.55,15.22-20.37,28.23-42.86,38.65-66.8-7.82,5.31-18.19,5.39-26.07.2,15.49-11.15,29.03-25.76,39.65-42.74-11.23-.1-22.45-1.17-33.54-3.18,8.74-9.68,16.49-20.51,23.05-32.2-7.67,3.11-15.82,4.7-23.96,4.7,7.44-9,14.87-17.99,22.31-26.99-3.77.42-9.02-1.13-12.79-.71Z" fill="url(#linear-gradient-12)" stroke="#161616" stroke-miterlimit="10" stroke-width="2"/></g></g></svg>